<?xml version="1.0" encoding="UTF-8" standalone="no"?>
<svg
   xmlns:dc="http://purl.org/dc/elements/1.1/"
   xmlns:cc="http://creativecommons.org/ns#"
   xmlns:rdf="http://www.w3.org/1999/02/22-rdf-syntax-ns#"
   xmlns:svg="http://www.w3.org/2000/svg"
   xmlns="http://www.w3.org/2000/svg"
   xmlns:sodipodi="http://sodipodi.sourceforge.net/DTD/sodipodi-0.dtd"
   xmlns:inkscape="http://www.inkscape.org/namespaces/inkscape"
   width="20mm"
   height="20mm"
   viewBox="0 0 19.999999 19.999999"
   version="1.1"
   id="svg4895"
   inkscape:version="1.0.1 (3bc2e813f5, 2020-09-07, custom)"
   sodipodi:docname="10an-favicon.svg"
   inkscape:export-filename="/home/hjalti/fb-profile.png"
   inkscape:export-xdpi="215.89999"
   inkscape:export-ydpi="215.89999">
  <defs
     id="defs4889" />
  <sodipodi:namedview
     id="base"
     pagecolor="#ffffff"
     bordercolor="#666666"
     borderopacity="1.0"
     inkscape:pageopacity="0"
     inkscape:pageshadow="2"
     inkscape:zoom="4.3743819"
     inkscape:cx="-16.938326"
     inkscape:cy="63.628477"
     inkscape:document-units="mm"
     inkscape:current-layer="g1527"
     inkscape:document-rotation="0"
     showgrid="false"
     inkscape:window-width="2556"
     inkscape:window-height="1401"
     inkscape:window-x="1920"
     inkscape:window-y="18"
     inkscape:window-maximized="0" />
  <metadata
     id="metadata4892">
    <rdf:RDF>
      <cc:Work
         rdf:about="">
        <dc:format>image/svg+xml</dc:format>
        <dc:type
           rdf:resource="http://purl.org/dc/dcmitype/StillImage" />
        <dc:title></dc:title>
      </cc:Work>
    </rdf:RDF>
  </metadata>
  <g
     inkscape:label="Layer 1"
     inkscape:groupmode="layer"
     id="layer1">
    <g
       id="g3596"
       transform="matrix(1.1488257,0,0,1.1488257,-129.99508,-256.89349)">
      <g
         id="g1527"
         transform="translate(0.08557946,0.81427623)">
        <g
           id="g3551"
           transform="matrix(0.94058856,0,0,0.94058856,108.46816,165.87571)"
           inkscape:export-filename="/home/hjalti/fb-profile.png"
           inkscape:export-xdpi="565.5993"
           inkscape:export-ydpi="565.5993">
          <path
             id="path2390-4-17-1-90-2"
             style="font-style:normal;font-variant:normal;font-weight:normal;font-stretch:normal;font-size:16.408px;line-height:1.2;font-family:Righteous;-inkscape-font-specification:Righteous;font-variant-ligatures:normal;font-variant-caps:normal;font-variant-numeric:normal;font-variant-east-asian:normal;letter-spacing:-1.28809px;white-space:pre;shape-inside:url(#rect957-8-1-0-7-6-0-9-8);fill:#126599;fill-opacity:1;stroke-width:1.45157;stroke-miterlimit:4;stroke-dasharray:none"
             d="m 6.5643916,61.435395 -1.67277,3.33727 h 1.6061 v 13.33924 h 3.337781 v -16.67651 z"
             inkscape:export-xdpi="96"
             inkscape:export-ydpi="96" />
          <path
             id="path2392-9-2-1-9-8-8"
             style="font-style:normal;font-variant:normal;font-weight:normal;font-stretch:normal;font-size:16.408px;line-height:1.2;font-family:Righteous;-inkscape-font-specification:Righteous;font-variant-ligatures:normal;font-variant-caps:normal;font-variant-numeric:normal;font-variant-east-asian:normal;letter-spacing:-1.28809px;white-space:pre;shape-inside:url(#rect957-8-1-0-7-6-0-9-8);fill:#e62727;fill-opacity:1;stroke-width:1.41218;stroke-miterlimit:4;stroke-dasharray:none"
             d="m 16.906382,61.435402 c -0.72019,0.0024 -1.40572,0.100888 -2.057749,0.293005 L 6.4977216,78.111905 h 3.337781 L 18.272192,61.559942 c -0.42792,-0.08002 -0.86947,-0.123775 -1.32705,-0.12454 z"
             inkscape:export-xdpi="96"
             inkscape:export-ydpi="96" />
          <path
             id="path2392-9-2-1-85-9"
             style="font-style:normal;font-variant:normal;font-weight:normal;font-stretch:normal;font-size:16.408px;line-height:1.2;font-family:Righteous;-inkscape-font-specification:Righteous;font-variant-ligatures:normal;font-variant-caps:normal;font-variant-numeric:normal;font-variant-east-asian:normal;letter-spacing:-1.28809px;white-space:pre;shape-inside:url(#rect957-8-1-0-7-6-0-9-8);fill:#126599;fill-opacity:1;stroke-width:1.41218;stroke-miterlimit:4;stroke-dasharray:none"
             d="m 16.906152,61.435583 c -0.89758,0 -1.74222,0.147145 -2.534209,0.441317 -0.784441,0.294169 -1.470971,0.769533 -2.059311,1.425752 -0.58079,0.65622 -1.040849,1.516158 -1.380279,2.579688 -0.33943,1.055978 -0.509011,2.353043 -0.509011,3.891751 0,1.523661 0.169581,2.817381 0.509011,3.8809 0.294569,0.916419 0.68258,1.681477 1.15911,2.302185 l 1.76888,-3.471106 c -0.20731,-0.742095 -0.31419,-1.642981 -0.31419,-2.711979 0,-1.817788 0.29377,-3.16025 0.88212,-4.02766 0.588329,-0.86742 1.414349,-1.301213 2.477879,-1.301213 0.35247,0 0.67731,0.05132 0.97822,0.146244 l 1.40303,-2.752802 c -0.74399,-0.266883 -1.5372,-0.403077 -2.38125,-0.403077 z m 4.81883,2.169377 -1.74563,3.424597 c 0.21909,0.748202 0.33228,1.659456 0.33228,2.744534 0,0.91268 -0.0793,1.704784 -0.23771,2.376082 -0.15088,0.663761 -0.373,1.214636 -0.66715,1.652096 -0.28663,0.437491 -0.64111,0.765191 -1.0635,0.983919 -0.42239,0.21119 -0.90159,0.316778 -1.43712,0.316778 -0.34899,0 -0.67022,-0.05081 -0.9679,-0.145212 l -1.410249,2.766756 c 0.746839,0.257223 1.538949,0.388091 2.378149,0.388091 0.89759,0 1.73892,-0.143349 2.52336,-0.429948 0.79198,-0.29419 1.48183,-0.769017 2.07016,-1.425236 0.58833,-0.65622 1.05221,-1.516147 1.39163,-2.579688 0.33944,-1.063519 0.50903,-2.364898 0.50903,-3.903638 0,-1.523619 -0.16959,-2.813034 -0.50903,-3.869013 -0.29429,-0.915609 -0.68468,-1.679694 -1.16632,-2.300118 z"
             inkscape:export-xdpi="96"
             inkscape:export-ydpi="96" />
          <path
             id="rect2474-0-7-3-3-3"
             style="fill:#e62727;fill-opacity:1;stroke-width:1.376"
             d="m 19.492932,61.435209 h 3.33778 l -8.49986,16.67651 h -3.337779 z"
             sodipodi:nodetypes="ccccc"
             inkscape:export-xdpi="96"
             inkscape:export-ydpi="96" />
        </g>
      </g>
    </g>
  </g>
</svg>
