<?xml version="1.0" encoding="UTF-8" standalone="no"?>
<svg
   xmlns:dc="http://purl.org/dc/elements/1.1/"
   xmlns:cc="http://creativecommons.org/ns#"
   xmlns:rdf="http://www.w3.org/1999/02/22-rdf-syntax-ns#"
   xmlns:svg="http://www.w3.org/2000/svg"
   xmlns="http://www.w3.org/2000/svg"
   xmlns:sodipodi="http://sodipodi.sourceforge.net/DTD/sodipodi-0.dtd"
   xmlns:inkscape="http://www.inkscape.org/namespaces/inkscape"
   width="40mm"
   height="19.159mm"
   viewBox="0 0 40 19.159"
   version="1.1"
   id="svg4895"
   inkscape:version="1.0.1 (3bc2e813f5, 2020-09-07)"
   sodipodi:docname="10an-logo-final-simple.svg"
   inkscape:export-filename="/home/hjalti/extra/antisec/website/assets/10an-logo-final-simple.png"
   inkscape:export-xdpi="381"
   inkscape:export-ydpi="381">
  <defs
     id="defs4889" />
  <sodipodi:namedview
     id="base"
     pagecolor="#ffffff"
     bordercolor="#666666"
     borderopacity="1.0"
     inkscape:pageopacity="0.0"
     inkscape:pageshadow="2"
     inkscape:zoom="4.3743819"
     inkscape:cx="118.65086"
     inkscape:cy="59.50472"
     inkscape:document-units="mm"
     inkscape:current-layer="g3596"
     inkscape:document-rotation="0"
     showgrid="false"
     inkscape:window-width="2556"
     inkscape:window-height="1401"
     inkscape:window-x="2560"
     inkscape:window-y="18"
     inkscape:window-maximized="0" />
  <metadata
     id="metadata4892">
    <rdf:RDF>
      <cc:Work
         rdf:about="">
        <dc:format>image/svg+xml</dc:format>
        <dc:type
           rdf:resource="http://purl.org/dc/dcmitype/StillImage" />
        <dc:title />
      </cc:Work>
    </rdf:RDF>
  </metadata>
  <g
     inkscape:label="Layer 1"
     inkscape:groupmode="layer"
     id="layer1">
    <g
       id="g3596"
       transform="matrix(1.1488257,0,0,1.1488257,-129.99508,-256.89349)">
      <path
         id="rect63-5-50-5-2-8-2-4-3-0-6"
         style="fill:#e62727;fill-opacity:1;stroke-width:0.241185"
         d="m 121.51442,223.61402 h 3.00527 l -8.35966,16.67662 h -3.00528 z"
         sodipodi:nodetypes="ccccc"
         inkscape:export-xdpi="96"
         inkscape:export-ydpi="96" />
      <path
         id="rect63-64-9-7-2-8-2-1-3-8"
         style="fill:#e62727;fill-opacity:1;stroke-width:0.241185"
         d="m 126.04748,223.61402 h 3.00527 l -8.35967,16.67662 h -3.00527 z"
         sodipodi:nodetypes="ccccc"
         inkscape:export-xdpi="96"
         inkscape:export-ydpi="96" />
      <path
         id="path2390-4"
         style="font-style:normal;font-variant:normal;font-weight:normal;font-stretch:normal;font-size:16.408px;line-height:1.2;font-family:Righteous;-inkscape-font-specification:Righteous;font-variant-ligatures:normal;font-variant-caps:normal;font-variant-numeric:normal;font-variant-east-asian:normal;letter-spacing:-1.28809px;white-space:pre;shape-inside:url(#rect957-8-1-0-7-6-0-9-8);fill:#126599;fill-opacity:1;stroke-width:1.45157;stroke-miterlimit:4;stroke-dasharray:none"
         d="m 130.58273,223.61425 -1.67277,3.33727 h 1.6061 v 13.33924 h 3.33778 v -16.67651 z" />
      <path
         id="path2392-9"
         style="font-style:normal;font-variant:normal;font-weight:normal;font-stretch:normal;font-size:16.408px;line-height:1.2;font-family:Righteous;-inkscape-font-specification:Righteous;font-variant-ligatures:normal;font-variant-caps:normal;font-variant-numeric:normal;font-variant-east-asian:normal;letter-spacing:-1.28809px;white-space:pre;shape-inside:url(#rect957-8-1-0-7-6-0-9-8);fill:#126599;fill-opacity:1;stroke-width:1.41218;stroke-miterlimit:4;stroke-dasharray:none"
         d="m 141.47943,223.614 c -0.89758,0 -1.74222,0.14715 -2.53421,0.44132 -0.78444,0.29417 -1.47097,0.76953 -2.05931,1.42575 -0.58079,0.65622 -1.04085,1.51616 -1.38027,2.57969 -0.33943,1.05598 -0.50902,2.35303 -0.50902,3.89174 0,1.52366 0.16959,2.81739 0.50902,3.88091 0.32185,1.00132 0.75356,1.82406 1.29243,2.47272 l 1.70583,-3.40289 c -0.25447,-0.78433 -0.38447,-1.76511 -0.38447,-2.95074 0,-1.81779 0.29378,-3.16024 0.88212,-4.02765 0.58833,-0.86742 1.41436,-1.30121 2.47788,-1.30121 0.39407,0 0.75546,0.0604 1.08521,0.1788 l 1.38131,-2.75591 c -0.76834,-0.28746 -1.59038,-0.43253 -2.46652,-0.43253 z m 4.6855,2.0004 -1.68413,3.35948 c 0.26739,0.78891 0.40411,1.7786 0.40411,2.97862 0,0.91268 -0.0793,1.70479 -0.23771,2.37609 -0.15086,0.66376 -0.37298,1.21463 -0.66714,1.65209 -0.28663,0.43749 -0.64111,0.7652 -1.06351,0.98393 -0.42239,0.21119 -0.90158,0.31679 -1.43712,0.31679 -0.3902,0 -0.7476,-0.06 -1.07383,-0.17778 l -1.38907,2.77088 c 0.77144,0.27691 1.59206,0.41653 2.4629,0.41653 0.89759,0 1.73892,-0.14335 2.52336,-0.42995 0.79199,-0.29419 1.48183,-0.76903 2.07016,-1.42525 0.58833,-0.65622 1.05222,-1.51615 1.39165,-2.57969 0.33942,-1.06352 0.50901,-2.3649 0.50901,-3.90364 0,-1.52362 -0.16959,-2.81302 -0.50901,-3.869 -0.32125,-0.99943 -0.75546,-1.82101 -1.29967,-2.4691 z" />
    </g>
  </g>
</svg>
