<?xml version="1.0" encoding="UTF-8" standalone="no"?>
<svg
   xmlns:dc="http://purl.org/dc/elements/1.1/"
   xmlns:cc="http://creativecommons.org/ns#"
   xmlns:rdf="http://www.w3.org/1999/02/22-rdf-syntax-ns#"
   xmlns:svg="http://www.w3.org/2000/svg"
   xmlns="http://www.w3.org/2000/svg"
   xmlns:sodipodi="http://sodipodi.sourceforge.net/DTD/sodipodi-0.dtd"
   xmlns:inkscape="http://www.inkscape.org/namespaces/inkscape"
   width="95mm"
   height="30mm"
   viewBox="0 0 95 30"
   version="1.1"
   id="svg3798"
   inkscape:version="1.0.1 (3bc2e813f5, 2020-09-07)"
   sodipodi:docname="10an-logo-final.svg">
  <defs
     id="defs3792">
    <rect
       x="105.84501"
       y="84.099945"
       width="41.336285"
       height="17.324526"
       id="rect2117-0-6-6-9-4-1-8-8-3" />
    <rect
       x="105.84501"
       y="84.099945"
       width="41.336285"
       height="17.324526"
       id="rect3775" />
  </defs>
  <sodipodi:namedview
     id="base"
     pagecolor="#ffffff"
     bordercolor="#666666"
     borderopacity="1.0"
     inkscape:pageopacity="0.0"
     inkscape:pageshadow="2"
     inkscape:zoom="3.1786513"
     inkscape:cx="173.70423"
     inkscape:cy="72.025614"
     inkscape:document-units="mm"
     inkscape:current-layer="g3596"
     inkscape:document-rotation="0"
     showgrid="false"
     inkscape:window-width="2556"
     inkscape:window-height="1401"
     inkscape:window-x="2560"
     inkscape:window-y="18"
     inkscape:window-maximized="0" />
  <metadata
     id="metadata3795">
    <rdf:RDF>
      <cc:Work
         rdf:about="">
        <dc:format>image/svg+xml</dc:format>
        <dc:type
           rdf:resource="http://purl.org/dc/dcmitype/StillImage" />
        <dc:title />
      </cc:Work>
    </rdf:RDF>
  </metadata>
  <g
     inkscape:label="Layer 1"
     inkscape:groupmode="layer"
     id="layer1">
    <g
       aria-label="Tölvuöryggiskeppni íslenskra ungmenna"
       transform="translate(-55.101704,-77.447289)"
       id="text2115-6-4-6-5-9-7-4-7-1"
       style="font-style:normal;font-variant:normal;font-weight:300;font-stretch:normal;font-size:4.93889px;line-height:0;font-family:'Signika Negative';-inkscape-font-specification:'Signika Negative, Light';font-variant-ligatures:normal;font-variant-caps:normal;font-variant-numeric:normal;font-variant-east-asian:normal;letter-spacing:0px;word-spacing:0px;white-space:pre;shape-inside:url(#rect2117-0-6-6-9-4-1-8-8-3)">
      <path
         d="m 107.47554,85.042873 -0.2667,-0.0049 v 3.076929 q -0.0741,0.01482 -0.1778,0.01482 -0.0988,0 -0.17286,-0.01482 v -3.076929 l -0.26177,0.0049 h -0.64205 q -0.0148,-0.07408 -0.0148,-0.143228 0,-0.07408 0.0148,-0.158044 h 2.15335 q 0.0247,0.07408 0.0247,0.143228 0,0.158044 -0.21237,0.158044 z"
         style="font-style:normal;font-variant:normal;font-weight:300;font-stretch:normal;font-size:4.93889px;line-height:1.1;font-family:'Signika Negative';-inkscape-font-specification:'Signika Negative, Light';font-variant-ligatures:normal;font-variant-caps:normal;font-variant-numeric:normal;font-variant-east-asian:normal;fill:#12659a;fill-opacity:1"
         id="path5526" />
      <path
         d="m 109.85113,85.897301 q 0.34572,0.350661 0.34572,1.007534 0,0.656872 -0.34572,1.007533 -0.26176,0.261762 -0.67663,0.261762 -0.40993,0 -0.67169,-0.261762 -0.34572,-0.350661 -0.34572,-1.007533 0,-0.656873 0.34572,-1.007534 0.26176,-0.261761 0.67169,-0.261761 0.41487,0 0.67663,0.261761 z m -0.67663,0 q -0.34572,0 -0.50871,0.296334 -0.15804,0.291394 -0.15804,0.716139 0,0.419805 0.15804,0.7112 0.16299,0.286455 0.51365,0.286455 0.23707,0 0.39511,-0.153105 0.27164,-0.271639 0.27164,-0.849489 0,-0.419806 -0.16298,-0.7112 -0.15805,-0.296334 -0.50871,-0.296334 z m 0.24695,-0.607483 q -0.0346,-0.07902 -0.0346,-0.162984 0,-0.0889 0.0346,-0.158044 0.0691,-0.04445 0.18767,-0.04445 0.11854,0 0.18274,0.04445 0.0346,0.06914 0.0346,0.162983 0,0.0889 -0.0346,0.158045 -0.0543,0.04445 -0.18274,0.04445 -0.12347,0 -0.18767,-0.04445 z m -0.86431,0 q -0.0346,-0.07902 -0.0346,-0.162984 0,-0.0889 0.0346,-0.158044 0.0642,-0.04445 0.18274,-0.04445 0.11853,0 0.18768,0.04445 0.0346,0.06914 0.0346,0.162983 0,0.0889 -0.0346,0.158045 -0.0642,0.04445 -0.19262,0.04445 -0.12347,0 -0.1778,-0.04445 z"
         style="font-style:normal;font-variant:normal;font-weight:300;font-stretch:normal;font-size:4.93889px;line-height:1.1;font-family:'Signika Negative';-inkscape-font-specification:'Signika Negative, Light';font-variant-ligatures:normal;font-variant-caps:normal;font-variant-numeric:normal;font-variant-east-asian:normal;fill:#12659a;fill-opacity:1"
         id="path5528" />
      <path
         d="m 111.40687,87.853102 h 0.21238 q 0.0296,0.07408 0.0296,0.153105 0,0.07902 -0.005,0.09878 -0.18768,0.02963 -0.36054,0.02963 -0.16792,0 -0.28151,-0.103716 -0.10866,-0.103717 -0.10866,-0.286456 v -3.230034 l 0.0296,-0.02963 h 0.12348 q 0.10865,0 0.14322,0.05433 0.0346,0.05433 0.0346,0.1778 v 2.928761 q 0,0.207434 0.18273,0.207434 z"
         style="font-style:normal;font-variant:normal;font-weight:300;font-stretch:normal;font-size:4.93889px;line-height:1.1;font-family:'Signika Negative';-inkscape-font-specification:'Signika Negative, Light';font-variant-ligatures:normal;font-variant-caps:normal;font-variant-numeric:normal;font-variant-east-asian:normal;fill:#12659a;fill-opacity:1"
         id="path5530" />
      <path
         d="m 112.91817,87.818529 0.67663,-2.128661 q 0.0543,-0.01482 0.13335,-0.01482 0.079,0 0.16792,0.0247 l 0.01,0.01482 q -0.38524,1.205089 -0.81492,2.400301 -0.0938,0.02469 -0.22225,0.02469 -0.12347,0 -0.17286,-0.03951 -0.0444,-0.03951 -0.0938,-0.192617 l -0.75071,-2.187928 q 0.11853,-0.05927 0.22719,-0.05927 0.10865,0 0.14816,0.123472 l 0.40005,1.195211 q 0.19262,0.582789 0.24695,0.8001 0.01,0.03951 0.0444,0.03951 z"
         style="font-style:normal;font-variant:normal;font-weight:300;font-stretch:normal;font-size:4.93889px;line-height:1.1;font-family:'Signika Negative';-inkscape-font-specification:'Signika Negative, Light';font-variant-ligatures:normal;font-variant-caps:normal;font-variant-numeric:normal;font-variant-east-asian:normal;fill:#12659a;fill-opacity:1"
         id="path5532" />
      <path
         d="m 114.37514,87.393785 v -1.239661 q 0,-0.296334 -0.0494,-0.414867 0.0741,-0.07408 0.21237,-0.07408 0.17286,0 0.17286,0.22225 v 1.392767 q 0,0.311151 0.079,0.444501 0.079,0.128411 0.28152,0.128411 0.20743,0 0.42968,-0.108656 0.22225,-0.113594 0.37042,-0.281517 v -1.768122 q 0.0642,-0.01482 0.16792,-0.01482 0.10372,0 0.16299,0.01482 v 1.738489 q 0,0.404989 0.13828,0.543278 -0.0494,0.123472 -0.15804,0.172861 -0.24201,-0.09384 -0.2914,-0.365478 -0.16792,0.167922 -0.40992,0.271639 -0.23707,0.103717 -0.47414,0.103717 -0.3309,0 -0.48401,-0.212372 -0.14816,-0.212373 -0.14816,-0.553156 z"
         style="font-style:normal;font-variant:normal;font-weight:300;font-stretch:normal;font-size:4.93889px;line-height:1.1;font-family:'Signika Negative';-inkscape-font-specification:'Signika Negative, Light';font-variant-ligatures:normal;font-variant-caps:normal;font-variant-numeric:normal;font-variant-east-asian:normal;fill:#12659a;fill-opacity:1"
         id="path5534" />
      <path
         d="m 118.6127,85.897301 q 0.34572,0.350661 0.34572,1.007534 0,0.656872 -0.34572,1.007533 -0.26176,0.261762 -0.67663,0.261762 -0.40992,0 -0.67169,-0.261762 -0.34572,-0.350661 -0.34572,-1.007533 0,-0.656873 0.34572,-1.007534 0.26177,-0.261761 0.67169,-0.261761 0.41487,0 0.67663,0.261761 z m -0.67663,0 q -0.34572,0 -0.5087,0.296334 -0.15805,0.291394 -0.15805,0.716139 0,0.419805 0.15805,0.7112 0.16298,0.286455 0.51364,0.286455 0.23707,0 0.39511,-0.153105 0.27164,-0.271639 0.27164,-0.849489 0,-0.419806 -0.16298,-0.7112 -0.15805,-0.296334 -0.50871,-0.296334 z m 0.24695,-0.607483 q -0.0346,-0.07902 -0.0346,-0.162984 0,-0.0889 0.0346,-0.158044 0.0691,-0.04445 0.18768,-0.04445 0.11853,0 0.18273,0.04445 0.0346,0.06914 0.0346,0.162983 0,0.0889 -0.0346,0.158045 -0.0543,0.04445 -0.18273,0.04445 -0.12348,0 -0.18768,-0.04445 z m -0.86431,0 q -0.0346,-0.07902 -0.0346,-0.162984 0,-0.0889 0.0346,-0.158044 0.0642,-0.04445 0.18274,-0.04445 0.11853,0 0.18768,0.04445 0.0346,0.06914 0.0346,0.162983 0,0.0889 -0.0346,0.158045 -0.0642,0.04445 -0.19262,0.04445 -0.12347,0 -0.1778,-0.04445 z"
         style="font-style:normal;font-variant:normal;font-weight:300;font-stretch:normal;font-size:4.93889px;line-height:1.1;font-family:'Signika Negative';-inkscape-font-specification:'Signika Negative, Light';font-variant-ligatures:normal;font-variant-caps:normal;font-variant-numeric:normal;font-variant-east-asian:normal;fill:#12659a;fill-opacity:1"
         id="path5536" />
      <path
         d="m 119.53627,85.847912 q 0.0444,-0.128411 0.14817,-0.187677 0.2667,0.103716 0.33584,0.439561 0.21731,-0.439561 0.66181,-0.439561 0.0988,0 0.22225,0.01976 0,0.202495 -0.079,0.321028 -0.0494,-0.0049 -0.16298,-0.0049 -0.41981,0 -0.61736,0.469195 v 1.649589 q -0.0642,0.01482 -0.16793,0.01482 -0.10371,0 -0.16298,-0.01482 v -1.763184 q 0,-0.316089 -0.1778,-0.503767 z"
         style="font-style:normal;font-variant:normal;font-weight:300;font-stretch:normal;font-size:4.93889px;line-height:1.1;font-family:'Signika Negative';-inkscape-font-specification:'Signika Negative, Light';font-variant-ligatures:normal;font-variant-caps:normal;font-variant-numeric:normal;font-variant-east-asian:normal;fill:#12659a;fill-opacity:1"
         id="path5538" />
      <path
         d="m 123.17622,85.714562 -0.68157,2.31634 q -0.18768,0.642055 -0.40005,0.898878 -0.21237,0.261761 -0.62724,0.261761 -0.20249,0 -0.38523,-0.06421 0,-0.01482 0,-0.02469 0,-0.118534 0.079,-0.217311 0.12841,0.04939 0.31115,0.04939 0.27164,0 0.40993,-0.182739 0.13829,-0.1778 0.25682,-0.567973 l 0.0148,-0.04939 q -0.12347,-0.0099 -0.18768,-0.05433 -0.0593,-0.04939 -0.10372,-0.182739 l -0.70132,-2.178051 q 0.13335,-0.05927 0.19756,-0.05927 0.13335,0 0.18274,0.162983 l 0.40005,1.259417 q 0.14322,0.459317 0.23706,0.775406 0.01,0.03457 0.0494,0.03457 l 0.61242,-2.202745 q 0.0741,-0.01482 0.16299,-0.01482 0.0889,0 0.16298,0.0247 z"
         style="font-style:normal;font-variant:normal;font-weight:300;font-stretch:normal;font-size:4.93889px;line-height:1.1;font-family:'Signika Negative';-inkscape-font-specification:'Signika Negative, Light';font-variant-ligatures:normal;font-variant-caps:normal;font-variant-numeric:normal;font-variant-east-asian:normal;fill:#12659a;fill-opacity:1"
         id="path5540" />
      <path
         d="m 124.34674,88.154374 q -0.40005,0 -0.61737,-0.330906 -0.21731,-0.335844 -0.21731,-0.93345 0,-0.602544 0.27658,-0.928511 0.28152,-0.325967 0.65687,-0.325967 0.3803,0 0.68157,0.2667 0.0741,-0.1778 0.24695,-0.242005 0.10865,0.05433 0.15804,0.172861 -0.13829,0.138289 -0.13829,0.543278 v 1.570567 q 0,0.676628 -0.22225,0.948266 -0.242,0.306212 -0.70132,0.306212 -0.45932,0 -0.84949,-0.167923 0.01,-0.158044 0.0988,-0.2667 0.32596,0.158045 0.60748,0.158045 0.28646,0 0.42475,-0.06421 0.14322,-0.06421 0.21237,-0.182739 0.11359,-0.212372 0.11359,-0.563033 v -0.296334 q -0.32596,0.335845 -0.73095,0.335845 z m 0.73095,-0.681567 v -1.28905 q -0.29633,-0.251884 -0.58279,-0.251884 -0.28645,0 -0.46425,0.246945 -0.1778,0.242006 -0.1778,0.726017 0,0.484011 0.14816,0.721078 0.15311,0.232128 0.37042,0.232128 0.21731,0 0.40005,-0.108656 0.18274,-0.108656 0.30621,-0.276578 z"
         style="font-style:normal;font-variant:normal;font-weight:300;font-stretch:normal;font-size:4.93889px;line-height:1.1;font-family:'Signika Negative';-inkscape-font-specification:'Signika Negative, Light';font-variant-ligatures:normal;font-variant-caps:normal;font-variant-numeric:normal;font-variant-east-asian:normal;fill:#12659a;fill-opacity:1"
         id="path5542" />
      <path
         d="m 126.92977,88.154374 q -0.40005,0 -0.61736,-0.330906 -0.21731,-0.335844 -0.21731,-0.93345 0,-0.602544 0.27657,-0.928511 0.28152,-0.325967 0.65688,-0.325967 0.38029,0 0.68156,0.2667 0.0741,-0.1778 0.24695,-0.242005 0.10865,0.05433 0.15804,0.172861 -0.13829,0.138289 -0.13829,0.543278 v 1.570567 q 0,0.676628 -0.22225,0.948266 -0.242,0.306212 -0.70132,0.306212 -0.45932,0 -0.84949,-0.167923 0.01,-0.158044 0.0988,-0.2667 0.32597,0.158045 0.60748,0.158045 0.28646,0 0.42475,-0.06421 0.14323,-0.06421 0.21237,-0.182739 0.11359,-0.212372 0.11359,-0.563033 v -0.296334 q -0.32596,0.335845 -0.73095,0.335845 z m 0.73095,-0.681567 v -1.28905 q -0.29633,-0.251884 -0.58278,-0.251884 -0.28646,0 -0.46426,0.246945 -0.1778,0.242006 -0.1778,0.726017 0,0.484011 0.14817,0.721078 0.1531,0.232128 0.37041,0.232128 0.21731,0 0.40005,-0.108656 0.18274,-0.108656 0.30621,-0.276578 z"
         style="font-style:normal;font-variant:normal;font-weight:300;font-stretch:normal;font-size:4.93889px;line-height:1.1;font-family:'Signika Negative';-inkscape-font-specification:'Signika Negative, Light';font-variant-ligatures:normal;font-variant-caps:normal;font-variant-numeric:normal;font-variant-east-asian:normal;fill:#12659a;fill-opacity:1"
         id="path5544" />
      <path
         d="m 129.21153,86.015835 v 2.099028 q -0.0642,0.01482 -0.16793,0.01482 -0.10371,0 -0.16792,-0.01482 v -1.926167 q 0,-0.138289 -0.0444,-0.187678 -0.0445,-0.04939 -0.15804,-0.04939 h -0.0445 q -0.0148,-0.06421 -0.0148,-0.118533 0,-0.05927 0.0148,-0.13335 0.14322,-0.01976 0.23706,-0.01976 h 0.0395 q 0.14323,0 0.22225,0.0889 0.084,0.0889 0.084,0.246945 z m -0.44944,-0.805039 q -0.0346,-0.06915 -0.0346,-0.177801 0,-0.113594 0.0346,-0.172861 0.0642,-0.04939 0.20743,-0.04939 0.14817,0 0.20743,0.04939 0.0346,0.05927 0.0346,0.172861 0,0.108656 -0.0346,0.177801 -0.0494,0.04939 -0.20249,0.04939 -0.14817,0 -0.21237,-0.04939 z"
         style="font-style:normal;font-variant:normal;font-weight:300;font-stretch:normal;font-size:4.93889px;line-height:1.1;font-family:'Signika Negative';-inkscape-font-specification:'Signika Negative, Light';font-variant-ligatures:normal;font-variant-caps:normal;font-variant-numeric:normal;font-variant-east-asian:normal;fill:#12659a;fill-opacity:1"
         id="path5546" />
      <path
         d="m 129.83382,87.927185 q 0.01,-0.143228 0.13829,-0.246944 0.40498,0.227188 0.67168,0.227188 0.27164,0 0.41981,-0.108655 0.14817,-0.113595 0.15311,-0.291395 0,-0.271639 -0.37042,-0.409927 l -0.28152,-0.108656 q -0.63218,-0.242006 -0.63218,-0.681567 0,-0.306211 0.23707,-0.48895 0.23707,-0.182739 0.60255,-0.182739 0.36547,0 0.71614,0.158045 0,0.162983 -0.10372,0.2667 -0.32597,-0.148167 -0.58773,-0.148167 -0.25682,0 -0.38523,0.103717 -0.12841,0.103716 -0.12841,0.251883 0,0.143228 0.0889,0.227189 0.0938,0.08396 0.29633,0.167922 l 0.29139,0.113595 q 0.60255,0.237066 0.60255,0.706261 0,0.321028 -0.25188,0.508706 -0.24695,0.182739 -0.66676,0.182739 -0.4198,0 -0.80997,-0.246945 z"
         style="font-style:normal;font-variant:normal;font-weight:300;font-stretch:normal;font-size:4.93889px;line-height:1.1;font-family:'Signika Negative';-inkscape-font-specification:'Signika Negative, Light';font-variant-ligatures:normal;font-variant-caps:normal;font-variant-numeric:normal;font-variant-east-asian:normal;fill:#12659a;fill-opacity:1"
         id="path5548" />
      <path
         d="m 133.64663,87.23574 0.19756,0.444501 q 0.12841,0.291394 0.23706,0.360538 -0.0741,0.103717 -0.20249,0.103717 -0.12841,0 -0.18274,-0.05927 -0.0494,-0.05927 -0.10866,-0.192617 l -0.23706,-0.518584 q -0.0988,-0.22225 -0.19756,-0.296333 -0.0988,-0.07408 -0.25682,-0.07408 -0.15805,0 -0.33091,0.01482 v 1.096434 q -0.0642,0.01482 -0.16298,0.01482 -0.0988,0 -0.16792,-0.01482 v -3.600451 l 0.0296,-0.02963 h 0.12347 q 0.10866,0 0.14323,0.05433 0.0346,0.05433 0.0346,0.1778 v 2.020006 l 0.22719,-0.01482 q 0.0642,0 0.10372,-0.06421 l 0.54822,-0.805039 q 0.0642,-0.09384 0.11359,-0.13335 0.0543,-0.03951 0.15311,-0.03951 0.10371,0 0.16792,0.0049 l 0.0296,0.03951 -0.64699,0.93345 q -0.0642,0.0889 -0.10866,0.123473 0.17286,0.03457 0.28152,0.138288 0.11359,0.103717 0.21237,0.316089 z"
         style="font-style:normal;font-variant:normal;font-weight:300;font-stretch:normal;font-size:4.93889px;line-height:1.1;font-family:'Signika Negative';-inkscape-font-specification:'Signika Negative, Light';font-variant-ligatures:normal;font-variant-caps:normal;font-variant-numeric:normal;font-variant-east-asian:normal;fill:#12659a;fill-opacity:1"
         id="path5550" />
      <path
         d="m 136.36796,87.008551 h -1.55081 q 0.0247,0.864306 0.65193,0.864306 0.34572,0 0.72108,-0.212372 0.10865,0.09384 0.12841,0.237067 -0.39511,0.276578 -0.89394,0.276578 -0.35066,0 -0.57291,-0.182739 -0.22225,-0.182739 -0.31115,-0.454378 -0.084,-0.276578 -0.084,-0.637117 0,-0.558095 0.26176,-0.908756 0.2667,-0.3556 0.72108,-0.3556 0.45437,0 0.70132,0.301272 0.24694,0.296334 0.24694,0.755651 0,0.158044 -0.0197,0.316088 z m -0.32597,-0.335844 q 0,-0.340783 -0.14817,-0.558095 -0.14816,-0.217311 -0.4445,-0.217311 -0.29139,0 -0.45437,0.232128 -0.16299,0.227189 -0.1778,0.612422 h 1.22484 z"
         style="font-style:normal;font-variant:normal;font-weight:300;font-stretch:normal;font-size:4.93889px;line-height:1.1;font-family:'Signika Negative';-inkscape-font-specification:'Signika Negative, Light';font-variant-ligatures:normal;font-variant-caps:normal;font-variant-numeric:normal;font-variant-east-asian:normal;fill:#12659a;fill-opacity:1"
         id="path5552" />
      <path
         d="m 138.1657,85.63554 q 0.41487,0 0.62724,0.340783 0.21731,0.335845 0.21731,0.933451 0,0.592666 -0.27657,0.918633 -0.27658,0.325967 -0.61736,0.325967 -0.34079,0 -0.66182,-0.212372 v 1.002594 q 0,0.123473 -0.0346,0.1778 -0.0346,0.05433 -0.14323,0.05433 h -0.12347 l -0.0296,-0.02963 v -3.437468 l 0.0296,-0.02963 h 0.12347 q 0.10866,0 0.14323,0.05433 0.0346,0.05433 0.0346,0.1778 v 0.06914 q 0.30128,-0.345722 0.7112,-0.345722 z m 0.50871,1.249539 q 0,-0.484011 -0.15804,-0.716139 -0.15805,-0.237067 -0.36548,-0.237067 -0.2025,0 -0.39017,0.113595 -0.18768,0.108656 -0.30622,0.296333 v 1.284112 q 0.33091,0.232128 0.59761,0.232128 0.2667,0 0.4445,-0.246945 0.1778,-0.246944 0.1778,-0.726017 z"
         style="font-style:normal;font-variant:normal;font-weight:300;font-stretch:normal;font-size:4.93889px;line-height:1.1;font-family:'Signika Negative';-inkscape-font-specification:'Signika Negative, Light';font-variant-ligatures:normal;font-variant-caps:normal;font-variant-numeric:normal;font-variant-east-asian:normal;fill:#12659a;fill-opacity:1"
         id="path5554" />
      <path
         d="m 140.75862,85.63554 q 0.41487,0 0.62724,0.340783 0.21731,0.335845 0.21731,0.933451 0,0.592666 -0.27658,0.918633 -0.27657,0.325967 -0.61736,0.325967 -0.34078,0 -0.66181,-0.212372 v 1.002594 q 0,0.123473 -0.0346,0.1778 -0.0346,0.05433 -0.14323,0.05433 h -0.12347 l -0.0296,-0.02963 v -3.437468 l 0.0296,-0.02963 h 0.12347 q 0.10866,0 0.14323,0.05433 0.0346,0.05433 0.0346,0.1778 v 0.06914 q 0.30127,-0.345722 0.7112,-0.345722 z m 0.50871,1.249539 q 0,-0.484011 -0.15805,-0.716139 -0.15804,-0.237067 -0.36548,-0.237067 -0.20249,0 -0.39017,0.113595 -0.18768,0.108656 -0.30621,0.296333 v 1.284112 q 0.33091,0.232128 0.59761,0.232128 0.2667,0 0.4445,-0.246945 0.1778,-0.246944 0.1778,-0.726017 z"
         style="font-style:normal;font-variant:normal;font-weight:300;font-stretch:normal;font-size:4.93889px;line-height:1.1;font-family:'Signika Negative';-inkscape-font-specification:'Signika Negative, Light';font-variant-ligatures:normal;font-variant-caps:normal;font-variant-numeric:normal;font-variant-east-asian:normal;fill:#12659a;fill-opacity:1"
         id="path5556" />
      <path
         d="m 144.14176,86.415885 v 1.2446 q 0,0.291394 0.0494,0.409928 -0.0741,0.07408 -0.21238,0.07408 -0.17286,0 -0.17286,-0.22225 v -1.392767 q 0,-0.31115 -0.079,-0.439561 -0.079,-0.13335 -0.28645,-0.13335 -0.20744,0 -0.42969,0.113594 -0.22225,0.108656 -0.36548,0.281517 v 1.763184 q -0.0691,0.01482 -0.16792,0.01482 -0.0988,0 -0.16792,-0.01482 v -2.40524 l 0.0296,-0.02963 h 0.12841 q 0.10866,0 0.14323,0.05433 0.0346,0.05433 0.0346,0.1778 v 0.09878 q 0.16299,-0.162984 0.39512,-0.261761 0.23706,-0.09878 0.46919,-0.09878 0.33091,0 0.47907,0.212372 0.15311,0.212372 0.15311,0.553156 z"
         style="font-style:normal;font-variant:normal;font-weight:300;font-stretch:normal;font-size:4.93889px;line-height:1.1;font-family:'Signika Negative';-inkscape-font-specification:'Signika Negative, Light';font-variant-ligatures:normal;font-variant-caps:normal;font-variant-numeric:normal;font-variant-east-asian:normal;fill:#12659a;fill-opacity:1"
         id="path5558" />
      <path
         d="m 145.37153,86.015835 v 2.099028 q -0.0642,0.01482 -0.16792,0.01482 -0.10372,0 -0.16792,-0.01482 v -1.926167 q 0,-0.138289 -0.0444,-0.187678 -0.0445,-0.04939 -0.15805,-0.04939 h -0.0445 q -0.0148,-0.06421 -0.0148,-0.118533 0,-0.05927 0.0148,-0.13335 0.14323,-0.01976 0.23707,-0.01976 h 0.0395 q 0.14323,0 0.22225,0.0889 0.084,0.0889 0.084,0.246945 z m -0.44944,-0.805039 q -0.0346,-0.06915 -0.0346,-0.177801 0,-0.113594 0.0346,-0.172861 0.0642,-0.04939 0.20744,-0.04939 0.14816,0 0.20743,0.04939 0.0346,0.05927 0.0346,0.172861 0,0.108656 -0.0346,0.177801 -0.0494,0.04939 -0.2025,0.04939 -0.14816,0 -0.21237,-0.04939 z"
         style="font-style:normal;font-variant:normal;font-weight:300;font-stretch:normal;font-size:4.93889px;line-height:1.1;font-family:'Signika Negative';-inkscape-font-specification:'Signika Negative, Light';font-variant-ligatures:normal;font-variant-caps:normal;font-variant-numeric:normal;font-variant-east-asian:normal;fill:#12659a;fill-opacity:1"
         id="path5560" />
      <path
         d="m 106.66062,91.448612 v 2.099028 q -0.0642,0.01482 -0.16792,0.01482 -0.10372,0 -0.16792,-0.01482 v -1.926167 q 0,-0.138289 -0.0444,-0.187678 -0.0445,-0.04939 -0.15805,-0.04939 h -0.0444 q -0.0148,-0.06421 -0.0148,-0.118533 0,-0.05927 0.0148,-0.13335 0.14323,-0.01976 0.23707,-0.01976 h 0.0395 q 0.14323,0 0.22225,0.0889 0.084,0.0889 0.084,0.246944 z m -0.55809,-0.691445 0.66675,-0.75565 q 0.0938,0.02963 0.17286,0.103717 0.079,0.07408 0.11853,0.158044 l -0.8001,0.637117 q -0.11359,-0.02963 -0.15804,-0.143228 z"
         style="line-height:1.1;fill:#12659a;fill-opacity:1"
         id="path5562" />
      <path
         d="m 107.28291,93.359962 q 0.01,-0.143227 0.13829,-0.246944 0.40499,0.227189 0.67169,0.227189 0.27164,0 0.41981,-0.108656 0.14816,-0.113594 0.1531,-0.291394 0,-0.271639 -0.37042,-0.409928 l -0.28151,-0.108656 q -0.63218,-0.242005 -0.63218,-0.681566 0,-0.306212 0.23707,-0.488951 0.23706,-0.182739 0.60254,-0.182739 0.36548,0 0.71614,0.158045 0,0.162983 -0.10372,0.2667 -0.32596,-0.148167 -0.58772,-0.148167 -0.25683,0 -0.38524,0.103717 -0.12841,0.103717 -0.12841,0.251883 0,0.143228 0.0889,0.227189 0.0938,0.08396 0.29633,0.167923 l 0.2914,0.113594 q 0.60254,0.237067 0.60254,0.706261 0,0.321028 -0.25188,0.508706 -0.24694,0.182739 -0.66675,0.182739 -0.41981,0 -0.80998,-0.246945 z"
         style="line-height:1.1;fill:#12659a;fill-opacity:1"
         id="path5564" />
      <path
         d="m 110.18697,93.285879 h 0.21237 q 0.0296,0.07408 0.0296,0.153106 0,0.07902 -0.005,0.09878 -0.18768,0.02963 -0.36054,0.02963 -0.16792,0 -0.28152,-0.103717 -0.10865,-0.103717 -0.10865,-0.286455 v -3.230035 l 0.0296,-0.02963 h 0.12347 q 0.10866,0 0.14323,0.05433 0.0346,0.05433 0.0346,0.1778 v 2.928762 q 0,0.207433 0.18274,0.207433 z"
         style="line-height:1.1;fill:#12659a;fill-opacity:1"
         id="path5566" />
      <path
         d="m 112.7947,92.441329 h -1.55081 q 0.0247,0.864306 0.65193,0.864306 0.34572,0 0.72108,-0.212373 0.10865,0.09384 0.12841,0.237067 -0.39511,0.276578 -0.89394,0.276578 -0.35066,0 -0.57291,-0.182739 -0.22225,-0.182739 -0.31115,-0.454378 -0.084,-0.276578 -0.084,-0.637117 0,-0.558094 0.26176,-0.908755 0.2667,-0.355601 0.72108,-0.355601 0.45437,0 0.70132,0.301273 0.24694,0.296333 0.24694,0.75565 0,0.158044 -0.0197,0.316089 z m -0.32597,-0.335845 q 0,-0.340783 -0.14817,-0.558094 -0.14816,-0.217311 -0.4445,-0.217311 -0.29139,0 -0.45437,0.232127 -0.16299,0.227189 -0.1778,0.612423 h 1.22484 z"
         style="line-height:1.1;fill:#12659a;fill-opacity:1"
         id="path5568" />
      <path
         d="m 115.38267,91.848662 v 1.2446 q 0,0.291395 0.0494,0.409928 -0.0741,0.07408 -0.21238,0.07408 -0.17286,0 -0.17286,-0.22225 v -1.392767 q 0,-0.311151 -0.079,-0.439562 -0.079,-0.13335 -0.28645,-0.13335 -0.20744,0 -0.42969,0.113595 -0.22225,0.108655 -0.36548,0.281517 v 1.763183 q -0.0691,0.01482 -0.16792,0.01482 -0.0988,0 -0.16792,-0.01482 v -2.405239 l 0.0296,-0.02963 h 0.12841 q 0.10866,0 0.14323,0.05433 0.0346,0.05433 0.0346,0.1778 v 0.09878 q 0.16299,-0.162983 0.39512,-0.261761 0.23706,-0.09878 0.46919,-0.09878 0.33091,0 0.47907,0.212372 0.15311,0.212373 0.15311,0.553156 z"
         style="line-height:1.1;fill:#12659a;fill-opacity:1"
         id="path5570" />
      <path
         d="m 115.9852,93.359962 q 0.01,-0.143227 0.13829,-0.246944 0.40499,0.227189 0.67169,0.227189 0.27164,0 0.41981,-0.108656 0.14816,-0.113594 0.1531,-0.291394 0,-0.271639 -0.37041,-0.409928 l -0.28152,-0.108656 q -0.63218,-0.242005 -0.63218,-0.681566 0,-0.306212 0.23707,-0.488951 0.23706,-0.182739 0.60254,-0.182739 0.36548,0 0.71614,0.158045 0,0.162983 -0.10372,0.2667 -0.32596,-0.148167 -0.58772,-0.148167 -0.25683,0 -0.38524,0.103717 -0.12841,0.103717 -0.12841,0.251883 0,0.143228 0.0889,0.227189 0.0938,0.08396 0.29634,0.167923 l 0.29139,0.113594 q 0.60254,0.237067 0.60254,0.706261 0,0.321028 -0.25188,0.508706 -0.24694,0.182739 -0.66675,0.182739 -0.4198,0 -0.80998,-0.246945 z"
         style="line-height:1.1;fill:#12659a;fill-opacity:1"
         id="path5572" />
      <path
         d="m 119.79802,92.668518 0.19755,0.4445 q 0.12841,0.291394 0.23707,0.360539 -0.0741,0.103717 -0.2025,0.103717 -0.12841,0 -0.18273,-0.05927 -0.0494,-0.05927 -0.10866,-0.192617 l -0.23707,-0.518583 q -0.0988,-0.22225 -0.19755,-0.296334 -0.0988,-0.07408 -0.25682,-0.07408 -0.15805,0 -0.33091,0.01482 v 1.096433 q -0.0642,0.01482 -0.16298,0.01482 -0.0988,0 -0.16793,-0.01482 v -3.600451 l 0.0296,-0.02963 h 0.12347 q 0.10866,0 0.14323,0.05433 0.0346,0.05433 0.0346,0.1778 v 2.020006 l 0.22719,-0.01482 q 0.0642,0 0.10372,-0.06421 l 0.54821,-0.805039 q 0.0642,-0.09384 0.1136,-0.13335 0.0543,-0.03951 0.1531,-0.03951 0.10372,0 0.16792,0.0049 l 0.0296,0.03951 -0.647,0.93345 q -0.0642,0.0889 -0.10865,0.123472 0.17286,0.03457 0.28151,0.138289 0.1136,0.103717 0.21238,0.316089 z"
         style="line-height:1.1;fill:#12659a;fill-opacity:1"
         id="path5574" />
      <path
         d="m 120.66232,91.28069 q 0.0445,-0.128411 0.14817,-0.187678 0.2667,0.103717 0.33584,0.439561 0.21731,-0.439561 0.66181,-0.439561 0.0988,0 0.22225,0.01976 0,0.202495 -0.079,0.321028 -0.0494,-0.0049 -0.16298,-0.0049 -0.41981,0 -0.61736,0.469195 v 1.649589 q -0.0642,0.01482 -0.16793,0.01482 -0.10371,0 -0.16298,-0.01482 v -1.763183 q 0,-0.316089 -0.1778,-0.503767 z"
         style="line-height:1.1;fill:#12659a;fill-opacity:1"
         id="path5576" />
      <path
         d="m 124.23807,93.409351 q -0.0494,0.123473 -0.15804,0.172861 -0.23707,-0.09384 -0.28646,-0.3556 -0.38029,0.380295 -0.78528,0.380295 -0.33585,0 -0.52353,-0.212372 -0.18767,-0.217311 -0.18767,-0.503767 0,-0.395111 0.24694,-0.592667 0.24695,-0.197556 0.67663,-0.197556 0.29139,0 0.55809,0.04939 v -0.261761 q 0,-0.518583 -0.45931,-0.518583 -0.35066,0 -0.80998,0.207433 -0.0494,-0.03951 -0.0889,-0.118533 -0.0346,-0.07902 -0.0346,-0.148167 0.51858,-0.232128 0.95814,-0.232128 0.75565,0 0.75565,0.819856 v 1.017411 q 0,0.360539 0.13829,0.493889 z m -1.59526,-0.563033 q 0,0.217311 0.10372,0.345722 0.10865,0.123472 0.29633,0.123472 0.18768,0 0.38523,-0.108655 0.19756,-0.108656 0.35066,-0.316089 v -0.48895 q -0.27657,-0.03951 -0.55315,-0.03951 -0.27164,0 -0.42969,0.13335 -0.1531,0.13335 -0.1531,0.350661 z"
         style="line-height:1.1;fill:#12659a;fill-opacity:1"
         id="path5578" />
      <path
         d="m 106.26057,98.135867 v -1.239661 q 0,-0.296333 -0.0494,-0.414867 0.0741,-0.07408 0.21237,-0.07408 0.17286,0 0.17286,0.22225 v 1.392767 q 0,0.31115 0.079,0.4445 0.079,0.128411 0.28151,0.128411 0.20744,0 0.42969,-0.108656 0.22225,-0.113594 0.37041,-0.281516 v -1.768123 q 0.0642,-0.01482 0.16793,-0.01482 0.10371,0 0.16298,0.01482 v 1.738489 q 0,0.404989 0.13829,0.543278 -0.0494,0.123473 -0.15805,0.172861 -0.242,-0.09384 -0.29139,-0.365477 -0.16792,0.167922 -0.40993,0.271639 -0.23707,0.103716 -0.47413,0.103716 -0.33091,0 -0.48401,-0.212372 -0.14817,-0.212372 -0.14817,-0.553156 z"
         style="font-style:normal;font-variant:normal;font-weight:300;font-stretch:normal;font-size:4.93889px;line-height:1.05;font-family:'Signika Negative';-inkscape-font-specification:'Signika Negative, Light';font-variant-ligatures:normal;font-variant-caps:normal;font-variant-numeric:normal;font-variant-east-asian:normal;fill:#12659a;fill-opacity:1"
         id="path5580" />
      <path
         d="m 110.81916,97.157967 v 1.2446 q 0,0.291395 0.0494,0.409928 -0.0741,0.07408 -0.21237,0.07408 -0.17286,0 -0.17286,-0.22225 v -1.392767 q 0,-0.311151 -0.079,-0.439562 -0.079,-0.13335 -0.28646,-0.13335 -0.20743,0 -0.42968,0.113595 -0.22225,0.108655 -0.36548,0.281517 v 1.763183 q -0.0692,0.01482 -0.16792,0.01482 -0.0988,0 -0.16793,-0.01482 v -2.405239 l 0.0296,-0.02963 h 0.12841 q 0.10865,0 0.14323,0.05433 0.0346,0.05433 0.0346,0.1778 v 0.09878 q 0.16298,-0.162983 0.39511,-0.261761 0.23707,-0.09878 0.4692,-0.09878 0.3309,0 0.47907,0.212372 0.1531,0.212373 0.1531,0.553156 z"
         style="font-style:normal;font-variant:normal;font-weight:300;font-stretch:normal;font-size:4.93889px;line-height:1.05;font-family:'Signika Negative';-inkscape-font-specification:'Signika Negative, Light';font-variant-ligatures:normal;font-variant-caps:normal;font-variant-numeric:normal;font-variant-east-asian:normal;fill:#12659a;fill-opacity:1"
         id="path5582" />
      <path
         d="m 112.32552,98.896456 q -0.40005,0 -0.61737,-0.330905 -0.21731,-0.335845 -0.21731,-0.93345 0,-0.602545 0.27658,-0.928512 0.28152,-0.325967 0.65687,-0.325967 0.3803,0 0.68157,0.266701 0.0741,-0.177801 0.24694,-0.242006 0.10866,0.05433 0.15805,0.172861 -0.13829,0.138289 -0.13829,0.543278 v 1.570567 q 0,0.676628 -0.22225,0.948267 -0.24201,0.306211 -0.70132,0.306211 -0.45932,0 -0.84949,-0.167922 0.01,-0.158045 0.0988,-0.2667 0.32596,0.158044 0.60748,0.158044 0.28646,0 0.42474,-0.06421 0.14323,-0.06421 0.21238,-0.182739 0.11359,-0.212373 0.11359,-0.563034 v -0.296333 q -0.32597,0.335844 -0.73095,0.335844 z m 0.73095,-0.681566 v -1.289051 q -0.29633,-0.251883 -0.58279,-0.251883 -0.28645,0 -0.46425,0.246944 -0.1778,0.242006 -0.1778,0.726017 0,0.484011 0.14816,0.721078 0.15311,0.232128 0.37042,0.232128 0.21731,0 0.40005,-0.108656 0.18274,-0.108655 0.30621,-0.276577 z"
         style="font-style:normal;font-variant:normal;font-weight:300;font-stretch:normal;font-size:4.93889px;line-height:1.05;font-family:'Signika Negative';-inkscape-font-specification:'Signika Negative, Light';font-variant-ligatures:normal;font-variant-caps:normal;font-variant-numeric:normal;font-variant-east-asian:normal;fill:#12659a;fill-opacity:1"
         id="path5584" />
      <path
         d="m 115.61481,97.271562 q 0,-0.306212 -0.079,-0.439562 -0.0741,-0.13335 -0.25189,-0.13335 -0.1778,0 -0.36547,0.108656 -0.18274,0.108655 -0.32103,0.291394 v 1.758245 q -0.0691,0.01482 -0.16792,0.01482 -0.0988,0 -0.16793,-0.01482 v -2.4003 l 0.0296,-0.03457 h 0.12841 q 0.10865,0 0.14323,0.05433 0.0346,0.05433 0.0346,0.1778 v 0.09878 q 0.31115,-0.360539 0.72108,-0.360539 0.40992,0 0.56303,0.380295 0.39511,-0.380295 0.8001,-0.380295 0.30621,0 0.45932,0.217311 0.15804,0.212373 0.15804,0.543278 v 1.249539 q 0,0.276578 0.0543,0.409928 -0.084,0.07408 -0.21237,0.07408 -0.17286,0 -0.17286,-0.22225 v -1.397706 q 0,-0.306212 -0.079,-0.434623 -0.0741,-0.13335 -0.25188,-0.13335 -0.1778,0 -0.36548,0.103717 -0.18274,0.103717 -0.32596,0.296333 v 1.758245 q -0.0642,0.01482 -0.16793,0.01482 -0.10371,0 -0.16298,-0.01482 z"
         style="font-style:normal;font-variant:normal;font-weight:300;font-stretch:normal;font-size:4.93889px;line-height:1.05;font-family:'Signika Negative';-inkscape-font-specification:'Signika Negative, Light';font-variant-ligatures:normal;font-variant-caps:normal;font-variant-numeric:normal;font-variant-east-asian:normal;fill:#12659a;fill-opacity:1"
         id="path5586" />
      <path
         d="m 119.89188,97.750634 h -1.55081 q 0.0247,0.864306 0.65194,0.864306 0.34572,0 0.72107,-0.212373 0.10866,0.09384 0.12842,0.237067 -0.39512,0.276578 -0.89394,0.276578 -0.35066,0 -0.57291,-0.182739 -0.22225,-0.182739 -0.31115,-0.454378 -0.084,-0.276578 -0.084,-0.637117 0,-0.558094 0.26177,-0.908755 0.2667,-0.355601 0.72107,-0.355601 0.45438,0 0.70133,0.301273 0.24694,0.296333 0.24694,0.75565 0,0.158044 -0.0198,0.316089 z m -0.32596,-0.335845 q 0,-0.340783 -0.14817,-0.558094 -0.14817,-0.217311 -0.4445,-0.217311 -0.29139,0 -0.45438,0.232127 -0.16298,0.227189 -0.1778,0.612423 h 1.22485 z"
         style="font-style:normal;font-variant:normal;font-weight:300;font-stretch:normal;font-size:4.93889px;line-height:1.05;font-family:'Signika Negative';-inkscape-font-specification:'Signika Negative, Light';font-variant-ligatures:normal;font-variant-caps:normal;font-variant-numeric:normal;font-variant-east-asian:normal;fill:#12659a;fill-opacity:1"
         id="path5588" />
      <path
         d="m 122.47985,97.157967 v 1.2446 q 0,0.291395 0.0494,0.409928 -0.0741,0.07408 -0.21237,0.07408 -0.17286,0 -0.17286,-0.22225 v -1.392767 q 0,-0.311151 -0.079,-0.439562 -0.079,-0.13335 -0.28646,-0.13335 -0.20743,0 -0.42968,0.113595 -0.22225,0.108655 -0.36548,0.281517 v 1.763183 q -0.0691,0.01482 -0.16792,0.01482 -0.0988,0 -0.16792,-0.01482 v -2.405239 l 0.0296,-0.02963 h 0.12841 q 0.10866,0 0.14323,0.05433 0.0346,0.05433 0.0346,0.1778 v 0.09878 q 0.16298,-0.162983 0.39511,-0.261761 0.23707,-0.09878 0.4692,-0.09878 0.3309,0 0.47907,0.212372 0.1531,0.212373 0.1531,0.553156 z"
         style="font-style:normal;font-variant:normal;font-weight:300;font-stretch:normal;font-size:4.93889px;line-height:1.05;font-family:'Signika Negative';-inkscape-font-specification:'Signika Negative, Light';font-variant-ligatures:normal;font-variant-caps:normal;font-variant-numeric:normal;font-variant-east-asian:normal;fill:#12659a;fill-opacity:1"
         id="path5590" />
      <path
         d="m 125.17154,97.157967 v 1.2446 q 0,0.291395 0.0494,0.409928 -0.0741,0.07408 -0.21237,0.07408 -0.17286,0 -0.17286,-0.22225 v -1.392767 q 0,-0.311151 -0.079,-0.439562 -0.079,-0.13335 -0.28645,-0.13335 -0.20744,0 -0.42969,0.113595 -0.22225,0.108655 -0.36547,0.281517 v 1.763183 q -0.0692,0.01482 -0.16793,0.01482 -0.0988,0 -0.16792,-0.01482 v -2.405239 l 0.0296,-0.02963 h 0.12841 q 0.10865,0 0.14322,0.05433 0.0346,0.05433 0.0346,0.1778 v 0.09878 q 0.16298,-0.162983 0.39511,-0.261761 0.23706,-0.09878 0.46919,-0.09878 0.33091,0 0.47908,0.212372 0.1531,0.212373 0.1531,0.553156 z"
         style="font-style:normal;font-variant:normal;font-weight:300;font-stretch:normal;font-size:4.93889px;line-height:1.05;font-family:'Signika Negative';-inkscape-font-specification:'Signika Negative, Light';font-variant-ligatures:normal;font-variant-caps:normal;font-variant-numeric:normal;font-variant-east-asian:normal;fill:#12659a;fill-opacity:1"
         id="path5592" />
      <path
         d="m 127.7842,98.718656 q -0.0494,0.123473 -0.15804,0.172861 -0.23707,-0.09384 -0.28646,-0.3556 -0.38029,0.380295 -0.78528,0.380295 -0.33584,0 -0.52352,-0.212372 -0.18768,-0.217312 -0.18768,-0.503767 0,-0.395111 0.24694,-0.592667 0.24695,-0.197556 0.67663,-0.197556 0.2914,0 0.5581,0.04939 v -0.261761 q 0,-0.518583 -0.45932,-0.518583 -0.35066,0 -0.80998,0.207433 -0.0494,-0.03951 -0.0889,-0.118533 -0.0346,-0.07902 -0.0346,-0.148167 0.51858,-0.232128 0.95814,-0.232128 0.75565,0 0.75565,0.819856 v 1.017411 q 0,0.360539 0.13829,0.493889 z m -1.59526,-0.563033 q 0,0.217311 0.10372,0.345722 0.10865,0.123472 0.29633,0.123472 0.18768,0 0.38524,-0.108655 0.19755,-0.108656 0.35066,-0.316089 v -0.48895 q -0.27658,-0.03951 -0.55316,-0.03951 -0.27164,0 -0.42968,0.13335 -0.15311,0.13335 -0.15311,0.350661 z"
         style="font-style:normal;font-variant:normal;font-weight:300;font-stretch:normal;font-size:4.93889px;line-height:1.05;font-family:'Signika Negative';-inkscape-font-specification:'Signika Negative, Light';font-variant-ligatures:normal;font-variant-caps:normal;font-variant-numeric:normal;font-variant-east-asian:normal;fill:#12659a;fill-opacity:1"
         id="path5594" />
    </g>
    <path
       id="rect2140-2-9-1-3-6-4-8-06-2"
       style="fill:#126599;fill-opacity:1;stroke-width:0.422876"
       d="m 45.465393,3.1039233 h 0.328 V 26.429777 h -0.328 z" />
    <g
       id="g3596"
       transform="translate(-107.55266,-217.18566)">
      <path
         id="rect63-5-50-5-2-8-2-4-3-0-6"
         style="fill:#e62727;fill-opacity:1;stroke-width:0.241185"
         d="m 121.51442,223.61402 h 3.00527 l -8.35966,16.67662 h -3.00528 z"
         sodipodi:nodetypes="ccccc"
         inkscape:export-xdpi="96"
         inkscape:export-ydpi="96" />
      <path
         id="rect63-64-9-7-2-8-2-1-3-8"
         style="fill:#e62727;fill-opacity:1;stroke-width:0.241185"
         d="m 126.04748,223.61402 h 3.00527 l -8.35967,16.67662 h -3.00527 z"
         sodipodi:nodetypes="ccccc"
         inkscape:export-xdpi="96"
         inkscape:export-ydpi="96" />
      <path
         id="path2390-4"
         style="font-style:normal;font-variant:normal;font-weight:normal;font-stretch:normal;font-size:16.408px;line-height:1.2;font-family:Righteous;-inkscape-font-specification:Righteous;font-variant-ligatures:normal;font-variant-caps:normal;font-variant-numeric:normal;font-variant-east-asian:normal;letter-spacing:-1.28809px;white-space:pre;shape-inside:url(#rect957-8-1-0-7-6-0-9-8);fill:#126599;fill-opacity:1;stroke-width:1.45157;stroke-miterlimit:4;stroke-dasharray:none"
         d="m 130.58273,223.61425 -1.67277,3.33727 h 1.6061 v 13.33924 h 3.33778 v -16.67651 z" />
      <path
         id="path2392-9"
         style="font-style:normal;font-variant:normal;font-weight:normal;font-stretch:normal;font-size:16.408px;line-height:1.2;font-family:Righteous;-inkscape-font-specification:Righteous;font-variant-ligatures:normal;font-variant-caps:normal;font-variant-numeric:normal;font-variant-east-asian:normal;letter-spacing:-1.28809px;white-space:pre;shape-inside:url(#rect957-8-1-0-7-6-0-9-8);fill:#126599;fill-opacity:1;stroke-width:1.41218;stroke-miterlimit:4;stroke-dasharray:none"
         d="m 141.47943,223.614 c -0.89758,0 -1.74222,0.14715 -2.53421,0.44132 -0.78444,0.29417 -1.47097,0.76953 -2.05931,1.42575 -0.58079,0.65622 -1.04085,1.51616 -1.38027,2.57969 -0.33943,1.05598 -0.50902,2.35303 -0.50902,3.89174 0,1.52366 0.16959,2.81739 0.50902,3.88091 0.32185,1.00132 0.75356,1.82406 1.29243,2.47272 l 1.70583,-3.40289 c -0.25447,-0.78433 -0.38447,-1.76511 -0.38447,-2.95074 0,-1.81779 0.29378,-3.16024 0.88212,-4.02765 0.58833,-0.86742 1.41436,-1.30121 2.47788,-1.30121 0.39407,0 0.75546,0.0604 1.08521,0.1788 l 1.38131,-2.75591 c -0.76834,-0.28746 -1.59038,-0.43253 -2.46652,-0.43253 z m 4.6855,2.0004 -1.68413,3.35948 c 0.26739,0.78891 0.40411,1.7786 0.40411,2.97862 0,0.91268 -0.0793,1.70479 -0.23771,2.37609 -0.15086,0.66376 -0.37298,1.21463 -0.66714,1.65209 -0.28663,0.43749 -0.64111,0.7652 -1.06351,0.98393 -0.42239,0.21119 -0.90158,0.31679 -1.43712,0.31679 -0.3902,0 -0.7476,-0.06 -1.07383,-0.17778 l -1.38907,2.77088 c 0.77144,0.27691 1.59206,0.41653 2.4629,0.41653 0.89759,0 1.73892,-0.14335 2.52336,-0.42995 0.79199,-0.29419 1.48183,-0.76903 2.07016,-1.42525 0.58833,-0.65622 1.05222,-1.51615 1.39165,-2.57969 0.33942,-1.06352 0.50901,-2.3649 0.50901,-3.90364 0,-1.52362 -0.16959,-2.81302 -0.50901,-3.869 -0.32125,-0.99943 -0.75546,-1.82101 -1.29967,-2.4691 z" />
    </g>
  </g>
</svg>
