<?xml version="1.0" encoding="UTF-8" standalone="no"?>
<svg
   xmlns:dc="http://purl.org/dc/elements/1.1/"
   xmlns:cc="http://creativecommons.org/ns#"
   xmlns:rdf="http://www.w3.org/1999/02/22-rdf-syntax-ns#"
   xmlns:svg="http://www.w3.org/2000/svg"
   xmlns="http://www.w3.org/2000/svg"
   width="40mm"
   height="19.190001mm"
   viewBox="0 0 40 19.19"
   version="1.1"
   id="svg4895">
  <defs
     id="defs4889" />
  <metadata
     id="metadata4892">
    <rdf:RDF>
      <cc:Work
         rdf:about="">
        <dc:format>image/svg+xml</dc:format>
        <dc:type
           rdf:resource="http://purl.org/dc/dcmitype/StillImage" />
        <dc:title></dc:title>
      </cc:Work>
    </rdf:RDF>
  </metadata>
  <g
     id="layer1">
    <g
       id="g3596"
       transform="matrix(1.1488257,0,0,1.1488257,-129.99508,-256.89349)">
      <g
         id="g3166-3-4"
         transform="matrix(1.0016093,0,0,1.0016093,0.32345918,10.452775)">
        <path
           id="rect2474-0-8-8-0-0"
           style="fill:#e62727;fill-opacity:1;stroke-width:1.376"
           d="m 125.58586,212.81897 h 3.33778 l -8.49986,16.67651 H 117.086 Z" />
        <path
           id="path2390-4-17-5-8-9-5"
           style="font-style:normal;font-variant:normal;font-weight:normal;font-stretch:normal;font-size:16.408px;line-height:1.2;font-family:Righteous;-inkscape-font-specification:Righteous;font-variant-ligatures:normal;font-variant-caps:normal;font-variant-numeric:normal;font-variant-east-asian:normal;letter-spacing:-1.28809px;white-space:pre;shape-inside:url(#rect957-8-1-0-7-6-0-9-8);fill:#126599;fill-opacity:1;stroke-width:1.45157;stroke-miterlimit:4;stroke-dasharray:none"
           d="m 130.02128,212.8192 -1.67277,3.33727 h 1.6061 v 13.33924 h 3.33778 V 212.8192 Z" />
        <path
           id="path2392-9-2-6-3-2-9"
           style="font-style:normal;font-variant:normal;font-weight:normal;font-stretch:normal;font-size:16.408px;line-height:1.2;font-family:Righteous;-inkscape-font-specification:Righteous;font-variant-ligatures:normal;font-variant-caps:normal;font-variant-numeric:normal;font-variant-east-asian:normal;letter-spacing:-1.28809px;white-space:pre;shape-inside:url(#rect957-8-1-0-7-6-0-9-8);fill:#126599;fill-opacity:1;stroke-width:1.41218;stroke-miterlimit:4;stroke-dasharray:none"
           d="m 140.91804,212.81872 c -0.89758,0 -1.74222,0.14714 -2.53421,0.44131 -0.78444,0.29417 -1.47097,0.76954 -2.05931,1.42575 -0.58079,0.65622 -1.04085,1.51616 -1.38028,2.57969 -0.33943,1.05599 -0.50901,2.35306 -0.50901,3.89176 0,1.52366 0.16958,2.81737 0.50901,3.88089 0.29457,0.91642 0.68258,1.68148 1.15911,2.30219 l 1.76888,-3.47111 c -0.20731,-0.74209 -0.31419,-1.64297 -0.31419,-2.71197 0,-1.81779 0.29377,-3.16025 0.88212,-4.02766 0.58833,-0.86742 1.41436,-1.30121 2.47788,-1.30121 0.35247,0 0.67731,0.0513 0.97823,0.14624 l 1.40302,-2.75281 c -0.74399,-0.26688 -1.5372,-0.40307 -2.38125,-0.40307 z m 4.81883,2.16937 -1.74563,3.42461 c 0.21909,0.7482 0.33228,1.65946 0.33228,2.74453 0,0.91268 -0.0793,1.70478 -0.23771,2.37608 -0.15087,0.66376 -0.37299,1.21463 -0.66715,1.65209 -0.28663,0.43749 -0.6411,0.76519 -1.0635,0.98392 -0.42239,0.21119 -0.90158,0.31678 -1.43712,0.31678 -0.34899,0 -0.67022,-0.0508 -0.9679,-0.14521 l -1.41025,2.76675 c 0.74684,0.25723 1.53896,0.38809 2.37815,0.38809 0.89759,0 1.73892,-0.14335 2.52336,-0.42994 0.79199,-0.29419 1.48183,-0.76902 2.07016,-1.42524 0.58833,-0.65622 1.05221,-1.51615 1.39164,-2.57969 0.33943,-1.06352 0.50902,-2.36489 0.50902,-3.90363 0,-1.52362 -0.16959,-2.81304 -0.50902,-3.86901 -0.2943,-0.91561 -0.68469,-1.6797 -1.16633,-2.30013 z" />
        <path
           id="rect2474-1-1-5-4"
           style="fill:#e62727;fill-opacity:1;stroke-width:1.376"
           d="m 121.14986,212.819 h 3.33778 l -8.49986,16.67651 H 112.65 Z" />
      </g>
    </g>
  </g>
</svg>
