<?xml version="1.0" encoding="UTF-8" standalone="no"?>
<svg
   width="95mm"
   height="30mm"
   viewBox="0 0 95 30"
   version="1.1"
   id="svg3798"
   xmlns="http://www.w3.org/2000/svg"
   xmlns:svg="http://www.w3.org/2000/svg"
   xmlns:rdf="http://www.w3.org/1999/02/22-rdf-syntax-ns#"
   xmlns:cc="http://creativecommons.org/ns#"
   xmlns:dc="http://purl.org/dc/elements/1.1/">
  <defs
     id="defs3792">
    <rect
       x="115.44447"
       y="49.457136"
       width="146.59914"
       height="67.755867"
       id="rect16113" />
    <rect
       x="105.84501"
       y="84.099945"
       width="41.336285"
       height="17.324526"
       id="rect2117-0-6-6-9-4-1-8-8-3" />
    <rect
       x="105.84501"
       y="84.099945"
       width="41.336285"
       height="17.324526"
       id="rect3775" />
    <rect
       x="105.84501"
       y="84.099945"
       width="41.336285"
       height="17.324526"
       id="rect2117-0-6-6-9-4-1-8-8-3-8-4" />
    <rect
       x="105.84501"
       y="84.099945"
       width="41.336285"
       height="17.324526"
       id="rect6640" />
  </defs>
  <metadata
     id="metadata3795">
    <rdf:RDF>
      <cc:Work
         rdf:about="">
        <dc:format>image/svg+xml</dc:format>
        <dc:type
           rdf:resource="http://purl.org/dc/dcmitype/StillImage" />
      </cc:Work>
    </rdf:RDF>
  </metadata>
  <g
     id="layer1">
    <g
       id="g6629"
       transform="translate(-1.3385014,-8.1517887)">
      <g
         aria-label="Gagnaglíman "
         transform="matrix(2.2867156,0,0,2.2867156,-216.1695,-175.11153)"
         id="text2115-6-4-6-5-9-7-4-7-1-5-3"
         style="font-weight:600;font-size:4.93889px;line-height:0;font-family:'Signika Negative';-inkscape-font-specification:'Signika Negative, Semi-Bold';letter-spacing:0px;word-spacing:0px;white-space:pre;shape-inside:url(#rect2117-0-6-6-9-4-1-8-8-3-8-4)">
        <path
           d="m 107.55456,86.534418 0.76553,-0.0049 q 0.005,0 0.01,0 0.42475,0 0.42475,0.40005 v 1.289051 q -0.57785,0.212372 -1.27917,0.212372 -0.70133,0 -1.05693,-0.474134 -0.3556,-0.479072 -0.3556,-1.298928 0,-0.824794 0.43957,-1.279172 0.4445,-0.459317 1.08161,-0.459317 0.64206,0 1.16064,0.360539 -0.0148,0.13335 -0.10372,0.261761 -0.084,0.128411 -0.18767,0.197556 -0.41487,-0.291395 -0.84455,-0.291395 -0.42475,0 -0.66181,0.306211 -0.23707,0.301273 -0.23707,0.948267 0,1.219906 0.89888,1.219906 0.26176,0 0.54821,-0.06421 V 87.38888 q 0,-0.22225 0.01,-0.325967 h -0.36054 q -0.1531,0 -0.22719,-0.05927 -0.0691,-0.06421 -0.0691,-0.197556 0,-0.138289 0.0444,-0.271639 z"
           style="line-height:1.2;fill:#12659a"
           id="path940" />
        <path
           d="m 111.36739,88.08523 q -0.0247,0.08396 -0.0889,0.1778 -0.0593,0.0889 -0.12348,0.138289 -0.30621,-0.03457 -0.44944,-0.286456 -0.32596,0.316089 -0.70626,0.316089 -0.38029,0 -0.57291,-0.22225 -0.19261,-0.22225 -0.19261,-0.513645 0,-0.414867 0.2667,-0.6223 0.27163,-0.212372 0.69144,-0.212372 0.22719,0 0.42968,0.01976 v -0.148166 q 0,-0.390173 -0.37535,-0.390173 -0.2667,0 -0.75565,0.1778 -0.14323,-0.153105 -0.16299,-0.439561 0.5334,-0.22225 1.0668,-0.22225 0.37042,0 0.60255,0.207434 0.23213,0.207433 0.23213,0.627239 v 1.007533 q 0,0.271639 0.13829,0.385234 z m -1.23967,-0.123473 q 0.25683,0 0.49389,-0.237066 v -0.439562 q -0.17286,-0.01976 -0.37535,-0.01976 -0.2025,0 -0.30621,0.103717 -0.10372,0.103716 -0.10372,0.261761 0,0.158044 0.079,0.246944 0.079,0.08396 0.21237,0.08396 z"
           style="line-height:1.2;fill:#12659a"
           id="path942" />
        <path
           d="m 112.62681,88.406257 q -0.42969,0 -0.65194,-0.340783 -0.22225,-0.340783 -0.22225,-0.938389 0,-0.602545 0.28152,-0.943328 0.28152,-0.340783 0.67663,-0.340783 0.39511,0 0.66675,0.246944 0.14323,-0.182739 0.39017,-0.212372 0.0691,0.04445 0.12841,0.138289 0.0642,0.09384 0.084,0.172861 -0.13829,0.118533 -0.13829,0.424744 v 1.402645 q 0,0.785284 -0.25682,1.11125 -0.25682,0.325967 -0.84455,0.325967 -0.45932,0 -0.88406,-0.167922 0,-0.271639 0.15311,-0.449439 0.34078,0.153105 0.66181,0.153105 0.32596,0 0.44944,-0.162983 0.12347,-0.162983 0.12347,-0.454378 V 88.17413 q -0.28152,0.232127 -0.61736,0.232127 z m 0.61736,-0.740833 v -1.145823 q -0.21731,-0.202494 -0.42475,-0.202494 -0.20743,0 -0.32596,0.212372 -0.1136,0.212372 -0.1136,0.607484 0,0.395111 0.10372,0.582789 0.10865,0.187678 0.28152,0.187678 0.2667,0 0.47907,-0.242006 z"
           style="line-height:1.2;fill:#12659a"
           id="path944" />
        <path
           d="m 116.54829,86.707279 v 1.096434 q 0,0.301272 0.0988,0.464255 -0.16298,0.128412 -0.36547,0.128412 -0.19756,0 -0.27164,-0.09384 -0.0741,-0.09384 -0.0741,-0.291395 V 86.83569 q 0,-0.22225 -0.0593,-0.316089 -0.0593,-0.09878 -0.21238,-0.09878 -0.28151,0 -0.51858,0.246944 v 1.694039 q -0.13829,0.02469 -0.30127,0.02469 -0.16299,0 -0.31115,-0.02469 v -2.44475 l 0.0346,-0.02963 h 0.22719 q 0.28152,0 0.33584,0.296333 0.36054,-0.316089 0.71614,-0.316089 0.36054,0 0.52846,0.232128 0.17287,0.232128 0.17287,0.607483 z"
           style="line-height:1.2;fill:#12659a"
           id="path946" />
        <path
           d="m 119.20047,88.08523 q -0.0247,0.08396 -0.0889,0.1778 -0.0593,0.0889 -0.12348,0.138289 -0.30621,-0.03457 -0.44943,-0.286456 -0.32597,0.316089 -0.70627,0.316089 -0.38029,0 -0.57291,-0.22225 -0.19261,-0.22225 -0.19261,-0.513645 0,-0.414867 0.2667,-0.6223 0.27164,-0.212372 0.69144,-0.212372 0.22719,0 0.42968,0.01976 v -0.148166 q 0,-0.390173 -0.37535,-0.390173 -0.2667,0 -0.75565,0.1778 -0.14323,-0.153105 -0.16298,-0.439561 0.5334,-0.22225 1.0668,-0.22225 0.37041,0 0.60254,0.207434 0.23213,0.207433 0.23213,0.627239 v 1.007533 q 0,0.271639 0.13829,0.385234 z m -1.23966,-0.123473 q 0.25682,0 0.49388,-0.237066 v -0.439562 q -0.17286,-0.01976 -0.37535,-0.01976 -0.2025,0 -0.30621,0.103717 -0.10372,0.103716 -0.10372,0.261761 0,0.158044 0.079,0.246944 0.079,0.08396 0.21238,0.08396 z"
           style="line-height:1.2;fill:#12659a"
           id="path948" />
        <path
           d="m 120.45989,88.406257 q -0.42969,0 -0.65194,-0.340783 -0.22225,-0.340783 -0.22225,-0.938389 0,-0.602545 0.28152,-0.943328 0.28152,-0.340783 0.67663,-0.340783 0.39511,0 0.66675,0.246944 0.14323,-0.182739 0.39017,-0.212372 0.0692,0.04445 0.12841,0.138289 0.0642,0.09384 0.084,0.172861 -0.13829,0.118533 -0.13829,0.424744 v 1.402645 q 0,0.785284 -0.25682,1.11125 -0.25682,0.325967 -0.84455,0.325967 -0.45931,0 -0.88406,-0.167922 0,-0.271639 0.15311,-0.449439 0.34078,0.153105 0.66181,0.153105 0.32596,0 0.44944,-0.162983 0.12347,-0.162983 0.12347,-0.454378 V 88.17413 q -0.28152,0.232127 -0.61736,0.232127 z m 0.61736,-0.740833 v -1.145823 q -0.21731,-0.202494 -0.42475,-0.202494 -0.20743,0 -0.32596,0.212372 -0.1136,0.212372 -0.1136,0.607484 0,0.395111 0.10372,0.582789 0.10866,0.187678 0.28152,0.187678 0.2667,0 0.47907,-0.242006 z"
           style="line-height:1.2;fill:#12659a"
           id="path950" />
        <path
           d="m 123.16146,87.90743 h 0.16298 q 0.0494,0.148166 0.0494,0.261761 0,0.113594 -0.0148,0.172861 -0.28646,0.04445 -0.46426,0.04445 -0.5334,0 -0.5334,-0.57785 v -3.047295 l 0.0296,-0.03457 h 0.23707 q 0.18274,0 0.25682,0.0889 0.0741,0.08396 0.0741,0.291395 v 2.5781 q 0,0.222251 0.20249,0.222251 z"
           style="line-height:1.2;fill:#12659a"
           id="path952" />
        <path
           d="m 124.52954,86.39119 v 1.970617 q -0.13829,0.02469 -0.30127,0.02469 -0.16299,0 -0.31115,-0.02469 v -1.743428 q 0,-0.2667 -0.22225,-0.2667 h -0.0593 q -0.0247,-0.08396 -0.0247,-0.212372 0,-0.128411 0.0247,-0.22225 0.1778,-0.01976 0.36054,-0.01976 h 0.079 q 0.21237,0 0.33091,0.13335 0.12347,0.13335 0.12347,0.360539 z m -0.80998,-0.93345 0.73096,-0.805039 q 0.12841,0.04445 0.242,0.153106 0.11853,0.103716 0.15805,0.227189 l -0.87419,0.66675 q -0.18274,-0.05433 -0.25682,-0.242006 z"
           style="line-height:1.2;fill:#12659a"
           id="path954" />
        <path
           d="m 126.54955,86.840629 q 0,-0.419805 -0.2667,-0.419805 -0.21732,0 -0.44944,0.246944 v 1.694039 q -0.13829,0.02469 -0.30128,0.02469 -0.16298,0 -0.31115,-0.02469 v -2.439811 l 0.0346,-0.03457 h 0.22719 q 0.28645,0 0.34078,0.306211 0.34078,-0.325967 0.7112,-0.325967 0.37535,0 0.54328,0.3556 0.38029,-0.3556 0.7754,-0.3556 0.31115,0 0.47414,0.217311 0.16792,0.217311 0.16792,0.563034 v 1.1557 q 0,0.301272 0.0988,0.464255 -0.15311,0.128412 -0.36054,0.128412 -0.2025,0 -0.27658,-0.09384 -0.0741,-0.09384 -0.0741,-0.291395 V 86.83569 q 0,-0.414866 -0.27164,-0.414866 -0.20744,0 -0.44944,0.256822 v 1.684161 q -0.13829,0.02469 -0.30127,0.02469 -0.16299,0 -0.31115,-0.02469 z"
           style="line-height:1.2;fill:#12659a"
           id="path956" />
        <path
           d="m 131.15259,88.08523 q -0.0247,0.08396 -0.0889,0.1778 -0.0593,0.0889 -0.12347,0.138289 -0.30621,-0.03457 -0.44944,-0.286456 -0.32597,0.316089 -0.70626,0.316089 -0.3803,0 -0.57291,-0.22225 -0.19262,-0.22225 -0.19262,-0.513645 0,-0.414867 0.2667,-0.6223 0.27164,-0.212372 0.69144,-0.212372 0.22719,0 0.42969,0.01976 v -0.148166 q 0,-0.390173 -0.37536,-0.390173 -0.2667,0 -0.75565,0.1778 -0.14323,-0.153105 -0.16298,-0.439561 0.5334,-0.22225 1.0668,-0.22225 0.37042,0 0.60254,0.207434 0.23213,0.207433 0.23213,0.627239 v 1.007533 q 0,0.271639 0.13829,0.385234 z m -1.23966,-0.123473 q 0.25682,0 0.49389,-0.237066 v -0.439562 q -0.17286,-0.01976 -0.37536,-0.01976 -0.20249,0 -0.30621,0.103717 -0.10372,0.103716 -0.10372,0.261761 0,0.158044 0.079,0.246944 0.079,0.08396 0.21237,0.08396 z"
           style="line-height:1.2;fill:#12659a"
           id="path958" />
        <path
           d="m 133.71094,86.707279 v 1.096434 q 0,0.301272 0.0988,0.464255 -0.16299,0.128412 -0.36548,0.128412 -0.19756,0 -0.27164,-0.09384 -0.0741,-0.09384 -0.0741,-0.291395 V 86.83569 q 0,-0.22225 -0.0593,-0.316089 -0.0593,-0.09878 -0.21237,-0.09878 -0.28152,0 -0.51859,0.246944 v 1.694039 q -0.13828,0.02469 -0.30127,0.02469 -0.16298,0 -0.31115,-0.02469 v -2.44475 l 0.0346,-0.02963 h 0.22719 q 0.28152,0 0.33585,0.296333 0.36054,-0.316089 0.71614,-0.316089 0.36054,0 0.52846,0.232128 0.17286,0.232128 0.17286,0.607483 z"
           style="line-height:1.2;fill:#12659a"
           id="path960" />
      </g>
      <g
         id="g58542"
         transform="matrix(0.14779881,0,0,0.14779881,-396.60744,-574.3157)">
        <g
           id="g5431"
           transform="translate(-73.440909,-1.6833372)">
          <g
             id="g45742">
            <path
               id="path1070-3-4-8"
               style="fill:#126599;fill-opacity:1;stroke-width:0.55861"
               d="m 78.966797,25.337891 -1.369141,0.01758 c -8.261837,0.12848 -16.143038,3.503152 -21.941406,9.396484 -1.234527,1.251286 -2.351651,2.596757 -3.351562,4.015625 -1.089289,-1.558521 -2.330352,-3.022618 -3.69336,-4.363281 -2.977389,-2.932701 -6.502155,-5.240034 -10.378906,-6.792969 -3.876751,-1.552935 -8.020819,-2.317033 -12.199219,-2.25 l -1.324219,0.01563 v 11.402344 l 1.373047,-0.02734 c 2.664568,-0.04469 5.318601,0.435089 7.798828,1.423828 2.480227,0.988739 4.73772,2.456783 6.642579,4.328125 1.904858,1.871343 3.417743,4.100985 4.451171,6.564453 0.284891,0.675918 0.531596,1.368145 0.738282,2.066407 H 58.75 c 0.927292,-3.122628 2.609777,-6.004269 4.933594,-8.367188 3.686824,-3.759443 8.697154,-5.915075 13.964844,-6.015625 l 1.318359,-0.02344 z M 45.712891,62.53125 c -0.206686,0.703848 -0.453391,1.402207 -0.738282,2.078125 -1.033428,2.463469 -2.546313,4.691158 -4.451171,6.5625 -1.904859,1.871342 -4.162352,3.341339 -6.642579,4.330078 -2.480227,0.988739 -5.13426,1.468244 -7.798828,1.417969 l -1.373047,-0.02148 v 11.40039 l 1.324219,0.01758 c 4.1784,0.06703 8.322468,-0.699018 12.199219,-2.251953 3.876751,-1.552935 7.401517,-3.863901 10.378906,-6.791015 1.363008,-1.340664 2.604071,-2.804761 3.69336,-4.363282 0.999911,1.418869 2.117035,2.76434 3.351562,4.015625 5.798368,5.893332 13.679569,9.262145 21.941406,9.390625 l 1.369141,0.02148 V 76.949219 l -1.318359,-0.0293 C 72.380748,76.824958 67.370418,74.669599 63.683594,70.910156 61.354191,68.541651 59.677292,65.659464 58.75,62.53125 Z"
               transform="matrix(1.7901588,0,0,1.7901588,2765.925,3942.6318)" />
            <path
               id="rect4777"
               style="fill:#db162f;stroke-width:0.569585;stroke-linejoin:round"
               d="m 2810.1577,4034.1721 h 97.13 v 20.4 h -97.13 z" />
          </g>
        </g>
      </g>
      <text
         xml:space="preserve"
         id="text16111"
         style="font-size:10.5833px;line-height:1.2;font-family:sans-serif;letter-spacing:0px;white-space:pre;shape-inside:url(#rect16113)" />
    </g>
  </g>
</svg>
