<?xml version="1.0" encoding="UTF-8" standalone="no"?>
<svg
   width="95mm"
   height="30mm"
   viewBox="0 0 95 30"
   version="1.1"
   id="svg3798"
   xmlns="http://www.w3.org/2000/svg"
   xmlns:svg="http://www.w3.org/2000/svg"
   xmlns:rdf="http://www.w3.org/1999/02/22-rdf-syntax-ns#"
   xmlns:cc="http://creativecommons.org/ns#"
   xmlns:dc="http://purl.org/dc/elements/1.1/">
  <defs
     id="defs3792">
    <rect
       x="115.44447"
       y="49.457136"
       width="146.59914"
       height="67.755867"
       id="rect16113" />
    <rect
       x="105.84501"
       y="84.099945"
       width="41.336285"
       height="17.324526"
       id="rect2117-0-6-6-9-4-1-8-8-3" />
    <rect
       x="105.84501"
       y="84.099945"
       width="41.336285"
       height="17.324526"
       id="rect3775" />
    <rect
       x="105.84501"
       y="84.099945"
       width="41.336285"
       height="17.324526"
       id="rect2117-0-6-6-9-4-1-8-8-3-8-4" />
    <rect
       x="105.84501"
       y="84.099945"
       width="41.336285"
       height="17.324526"
       id="rect6640" />
  </defs>
  <metadata
     id="metadata3795">
    <rdf:RDF>
      <cc:Work
         rdf:about="">
        <dc:format>image/svg+xml</dc:format>
        <dc:type
           rdf:resource="http://purl.org/dc/dcmitype/StillImage" />
      </cc:Work>
    </rdf:RDF>
  </metadata>
  <g
     id="layer1">
    <g
       id="g6629"
       transform="translate(-1.3385014,-8.1517887)">
      <text
         xml:space="preserve"
         id="text2115-6-4-6-5-9-7-4-7-1-5-3"
         style="font-style:normal;font-variant:normal;font-weight:600;font-stretch:normal;font-size:4.93889px;line-height:0;font-family:'Signika Negative';-inkscape-font-specification:'Signika Negative, Semi-Bold';font-variant-ligatures:normal;font-variant-caps:normal;font-variant-numeric:normal;font-variant-east-asian:normal;letter-spacing:0px;word-spacing:0px;white-space:pre;shape-inside:url(#rect2117-0-6-6-9-4-1-8-8-3-8-4)"
         transform="matrix(2.2867156,0,0,2.2867156,-216.1695,-175.11153)"><tspan
           x="105.8457"
           y="88.361807"
           id="tspan46571"><tspan
             style="line-height:1.2;fill:#12659a"
             id="tspan46569">Gagnaglíman
</tspan></tspan></text>
      <g
         id="g58542"
         transform="matrix(0.14779881,0,0,0.14779881,-396.60744,-574.3157)">
        <g
           id="g5431"
           transform="translate(-73.440909,-1.6833372)">
          <g
             id="g45742">
            <path
               id="path1070-3-4-8"
               style="fill:#126599;fill-opacity:1;stroke-width:0.55861"
               d="m 78.966797,25.337891 -1.369141,0.01758 c -8.261837,0.12848 -16.143038,3.503152 -21.941406,9.396484 -1.234527,1.251286 -2.351651,2.596757 -3.351562,4.015625 -1.089289,-1.558521 -2.330352,-3.022618 -3.69336,-4.363281 -2.977389,-2.932701 -6.502155,-5.240034 -10.378906,-6.792969 -3.876751,-1.552935 -8.020819,-2.317033 -12.199219,-2.25 l -1.324219,0.01563 v 11.402344 l 1.373047,-0.02734 c 2.664568,-0.04469 5.318601,0.435089 7.798828,1.423828 2.480227,0.988739 4.73772,2.456783 6.642579,4.328125 1.904858,1.871343 3.417743,4.100985 4.451171,6.564453 0.284891,0.675918 0.531596,1.368145 0.738282,2.066407 H 58.75 c 0.927292,-3.122628 2.609777,-6.004269 4.933594,-8.367188 3.686824,-3.759443 8.697154,-5.915075 13.964844,-6.015625 l 1.318359,-0.02344 z M 45.712891,62.53125 c -0.206686,0.703848 -0.453391,1.402207 -0.738282,2.078125 -1.033428,2.463469 -2.546313,4.691158 -4.451171,6.5625 -1.904859,1.871342 -4.162352,3.341339 -6.642579,4.330078 -2.480227,0.988739 -5.13426,1.468244 -7.798828,1.417969 l -1.373047,-0.02148 v 11.40039 l 1.324219,0.01758 c 4.1784,0.06703 8.322468,-0.699018 12.199219,-2.251953 3.876751,-1.552935 7.401517,-3.863901 10.378906,-6.791015 1.363008,-1.340664 2.604071,-2.804761 3.69336,-4.363282 0.999911,1.418869 2.117035,2.76434 3.351562,4.015625 5.798368,5.893332 13.679569,9.262145 21.941406,9.390625 l 1.369141,0.02148 V 76.949219 l -1.318359,-0.0293 C 72.380748,76.824958 67.370418,74.669599 63.683594,70.910156 61.354191,68.541651 59.677292,65.659464 58.75,62.53125 Z"
               transform="matrix(1.7901588,0,0,1.7901588,2765.925,3942.6318)" />
            <path
               id="rect4777"
               style="fill:#db162f;stroke-width:0.569585;stroke-linejoin:round"
               d="m 2810.1577,4034.1721 h 97.13 v 20.4 h -97.13 z" />
          </g>
        </g>
      </g>
      <text
         xml:space="preserve"
         id="text16111"
         style="font-size:10.5833px;line-height:1.2;font-family:sans-serif;letter-spacing:0px;white-space:pre;shape-inside:url(#rect16113)" />
    </g>
  </g>
</svg>
