<?xml version="1.0" encoding="UTF-8" standalone="no"?>
<!-- Created with Inkscape (http://www.inkscape.org/) -->

<svg
   version="1.1"
   id="svg777"
   width="151.8324"
   height="153.88344"
   viewBox="0 0 151.8324 153.88344"
   xmlns="http://www.w3.org/2000/svg"
   xmlns:svg="http://www.w3.org/2000/svg">
  <defs
     id="defs781">
    <clipPath
       clipPathUnits="userSpaceOnUse"
       id="clipPath801">
      <path
         d="M 0,841.89 H 595.276 V 0 H 0 Z"
         id="path799" />
    </clipPath>
  </defs>
  <g
     id="g783"
     transform="matrix(1.3333333,0,0,-1.3333333,0,1122.52)">
    <g
       id="g797"
       clip-path="url(#clipPath801)"
       transform="translate(-240.7007,592.69032)">
      <g
         id="g1099"
         transform="translate(317.9937,182.9429)">
        <path
           d="m 0,0 c 0.203,0.545 0.382,1.101 0.542,1.667 l 13.949,-4.822 c 2.012,6.516 2.241,13.661 0.256,20.71 -0.633,2.241 -1.462,4.372 -2.462,6.384 l 6.409,2.833 c -2.282,4.677 -5.433,9.025 -9.47,12.782 -4.043,3.764 -8.613,6.603 -13.447,8.548 L -11.6,27.601 c -0.954,0.427 -1.946,0.788 -2.972,1.077 l 4.049,14.189 c -5.063,1.44 -10.487,1.801 -15.935,0.899 l 0.964,-6.133 c -0.98,-0.163 -1.957,-0.377 -2.928,-0.639 l -2.805,12.922 c -7.872,-1.984 -15.284,-6.175 -21.23,-12.559 -5.942,-6.383 -9.596,-14.075 -11.015,-22.068 l 6.946,-0.997 c -0.178,-0.954 -0.329,-1.914 -0.431,-2.885 l 6.215,-0.437 c -0.253,-2.262 -0.263,-4.56 0.002,-6.854 l 18.454,2.766 c -0.06,0.987 0.006,1.981 0.192,2.956 0.019,0.1 0.042,0.2 0.064,0.299 0.022,0.102 0.05,0.203 0.075,0.305 0.067,0.273 0.142,0.544 0.229,0.812 0.039,0.122 0.081,0.243 0.125,0.363 0.099,0.276 0.21,0.548 0.33,0.816 0.044,0.098 0.085,0.197 0.131,0.294 0.167,0.345 0.349,0.685 0.551,1.016 0.025,0.041 0.052,0.081 0.077,0.122 0.215,0.341 0.446,0.677 0.699,1.001 0.045,0.057 0.087,0.115 0.134,0.173 0.17,0.209 0.346,0.415 0.533,0.616 1.269,1.364 2.788,2.342 4.419,2.964 0.299,0.114 0.598,0.227 0.903,0.316 0.047,0.013 0.094,0.023 0.14,0.037 0.359,0.1 0.722,0.182 1.088,0.247 0.034,0.007 0.067,0.014 0.101,0.02 0.144,0.025 0.29,0.034 0.435,0.053 0.245,0.032 0.489,0.066 0.736,0.083 0.068,0.005 0.136,0.009 0.204,0.012 0.194,0.01 0.388,0.005 0.581,0.005 0.198,0 0.396,0.01 0.594,0.001 0.022,-0.001 0.044,-0.004 0.066,-0.005 0.374,-0.021 0.747,-0.061 1.118,-0.117 0.06,-0.009 0.12,-0.016 0.179,-0.026 0.389,-0.065 0.774,-0.15 1.156,-0.253 0.886,-0.241 1.751,-0.586 2.574,-1.039 0.11,-0.06 0.22,-0.122 0.328,-0.186 0.121,-0.072 0.241,-0.147 0.36,-0.223 0.231,-0.148 0.457,-0.306 0.68,-0.471 0.009,-0.007 0.019,-0.013 0.028,-0.021 0.064,-0.048 0.129,-0.096 0.192,-0.145 0.267,-0.209 0.53,-0.425 0.784,-0.66 0.284,-0.265 0.545,-0.545 0.798,-0.83 0.057,-0.064 0.115,-0.128 0.17,-0.194 0.222,-0.262 0.429,-0.533 0.625,-0.81 0.018,-0.025 0.036,-0.05 0.054,-0.076 0.044,-0.064 0.087,-0.129 0.13,-0.194 0.182,-0.274 0.356,-0.553 0.513,-0.838 0.035,-0.064 0.069,-0.13 0.103,-0.194 0.172,-0.327 0.333,-0.659 0.472,-0.997 0.006,-0.013 0.01,-0.026 0.015,-0.039 0.137,-0.335 0.253,-0.677 0.358,-1.021 0.018,-0.06 0.038,-0.119 0.055,-0.179 0.09,-0.314 0.162,-0.632 0.226,-0.951 0.024,-0.122 0.045,-0.245 0.066,-0.368 0.045,-0.268 0.08,-0.538 0.106,-0.808 0.01,-0.104 0.022,-0.207 0.03,-0.311 0.022,-0.321 0.03,-0.642 0.026,-0.963 C -8.735,7.369 -8.732,7.265 -8.736,7.16 -8.746,6.909 -8.764,6.658 -8.789,6.408 -8.805,6.252 -8.829,6.097 -8.851,5.941 -8.869,5.816 -8.887,5.691 -8.909,5.567 -8.937,5.406 -8.968,5.246 -9.003,5.086 -9.106,4.617 -9.238,4.155 -9.399,3.699 -9.504,3.401 -9.623,3.106 -9.752,2.815 -9.779,2.755 -9.803,2.693 -9.831,2.633 -10.34,1.541 -11.022,0.508 -11.889,-0.42 c -0.051,-0.056 -0.105,-0.109 -0.158,-0.163 -1.094,-1.13 -2.36,-1.995 -3.719,-2.594 -0.071,-0.031 -0.145,-0.056 -0.216,-0.087 -0.174,-0.072 -0.349,-0.143 -0.526,-0.206 -0.229,-0.083 -0.461,-0.155 -0.694,-0.224 -0.056,-0.016 -0.11,-0.036 -0.166,-0.051 -0.329,-0.091 -0.661,-0.164 -0.995,-0.226 -0.144,-0.027 -0.289,-0.045 -0.434,-0.067 -0.231,-0.034 -0.463,-0.062 -0.695,-0.082 -0.142,-0.012 -0.285,-0.024 -0.427,-0.032 -0.305,-0.015 -0.609,-0.019 -0.914,-0.01 -0.062,0.001 -0.125,-0.002 -0.187,0 -0.368,0.016 -0.736,0.053 -1.102,0.104 -0.56,0.076 -1.116,0.187 -1.663,0.344 l -12.574,-29.332 c 11.165,-4.344 23.707,-3.899 34.535,1.231 l -3.216,6.235 c 2.307,1.075 4.468,2.366 6.454,3.851 l -3.904,4.836 c 1.286,0.946 2.474,1.984 3.572,3.093 l 9.374,-9.307 c 0.322,0.325 0.649,0.647 0.964,0.985 3.888,4.174 6.788,8.911 8.734,13.923 z"
           style="fill:#ef3120;fill-opacity:1;fill-rule:nonzero;stroke:none"
           id="path1101" />
      </g>
      <g
         id="g1103"
         transform="translate(287.1119,171.2837)">
        <path
           d="m 0,0 4.483,9.054 c -0.761,0.439 -1.485,0.968 -2.157,1.59 -0.237,0.221 -0.458,0.452 -0.673,0.687 -0.045,0.049 -0.088,0.101 -0.132,0.151 -0.267,0.301 -0.513,0.614 -0.744,0.935 -0.06,0.084 -0.115,0.17 -0.173,0.255 -0.172,0.254 -0.333,0.514 -0.484,0.778 -0.064,0.114 -0.129,0.227 -0.19,0.343 -0.16,0.305 -0.309,0.615 -0.442,0.932 -0.029,0.071 -0.059,0.141 -0.087,0.213 -0.135,0.342 -0.255,0.69 -0.357,1.043 -0.043,0.148 -0.087,0.296 -0.124,0.445 l -24.103,-5.967 c 0.08,-0.323 0.159,-0.645 0.246,-0.967 l -6.758,-1.858 c 1.667,-6.046 4.656,-11.787 8.947,-16.775 l 10.091,8.538 c 1.073,-1.241 2.228,-2.388 3.462,-3.423 L -3.6,2.434 C -2.491,1.512 -1.288,0.692 0,0"
           style="fill:#ef3120;fill-opacity:1;fill-rule:nonzero;stroke:none"
           id="path1105" />
      </g>
      <g
         id="g1107"
         transform="translate(240.7007,195.333)">
        <path
           d="M 0,0 0.138,1.077 2.586,0.763 2.946,3.564 0.498,3.879 0.636,4.956 6.791,4.166 6.652,3.088 3.876,3.445 3.517,0.644 6.292,0.287 6.154,-0.791 Z"
           style="fill:#ffffff;fill-opacity:1;fill-rule:nonzero;stroke:none"
           id="path1109" />
      </g>
      <g
         id="g1111"
         transform="translate(246.294,205.0496)">
        <path
           d="M 0,0 0.551,1.813 -2.273,1.699 -2.281,1.674 Z M -3.465,1.452 -3.129,2.558 3.504,3.042 3.166,1.928 1.425,1.848 0.705,-0.523 2.107,-1.558 1.782,-2.631 Z m -1.452,1.176 0.342,1.123 0.831,-1.542 -0.21,-0.691 z"
           style="fill:#ffffff;fill-opacity:1;fill-rule:nonzero;stroke:none"
           id="path1113" />
      </g>
      <g
         id="g1115"
         transform="translate(249.4009,212.3792)">
        <path
           d="M 0,0 C 0.858,-0.42 1.503,0.048 1.884,0.828 2.304,1.687 2.039,2.213 1.618,2.419 1.188,2.628 0.902,2.478 0.706,2.294 0.367,1.976 0.017,1.519 -0.566,0.857 -1.29,0.031 -2.005,0.032 -2.582,0.315 -3.698,0.861 -3.717,2.146 -3.225,3.153 -2.656,4.315 -1.562,4.989 -0.4,4.421 L -0.877,3.445 C -1.618,3.75 -2.12,3.395 -2.448,2.724 -2.669,2.272 -2.784,1.622 -2.222,1.347 -1.832,1.157 -1.483,1.315 -1.18,1.66 -1.115,1.734 -0.192,2.81 0.035,3.057 0.612,3.684 1.408,3.73 1.985,3.447 3.233,2.837 3.191,1.485 2.649,0.377 2.028,-0.895 0.916,-1.627 -0.477,-0.975 Z"
           style="fill:#ffffff;fill-opacity:1;fill-rule:nonzero;stroke:none"
           id="path1117" />
      </g>
      <g
         id="g1119"
         transform="translate(249.6651,221.5003)">
        <path
           d="M 0,0 0.629,0.887 2.935,-0.748 2.229,3.142 3.003,4.235 3.591,0.78 8.168,0.786 7.384,-0.321 3.788,-0.266 3.992,-1.497 5.694,-2.705 5.064,-3.591 Z"
           style="fill:#ffffff;fill-opacity:1;fill-rule:nonzero;stroke:none"
           id="path1121" />
      </g>
      <g
         id="g1123"
         transform="translate(258.1109,227.2503)">
        <path
           d="M 0,0 C 0.841,-0.842 2.063,-1.28 3.003,-0.341 3.944,0.598 3.509,1.821 2.668,2.663 1.828,3.505 0.605,3.943 -0.335,3.004 -1.276,2.065 -0.84,0.842 0,0 M 3.437,3.43 C 4.688,2.176 4.945,0.346 3.629,-0.968 2.314,-2.281 0.483,-2.021 -0.768,-0.767 -2.02,0.487 -2.277,2.318 -0.961,3.631 0.354,4.944 2.185,4.684 3.437,3.43 M -1.986,4.842 -1.156,5.67 -1.151,3.919 -1.662,3.41 Z"
           style="fill:#ffffff;fill-opacity:1;fill-rule:nonzero;stroke:none"
           id="path1125" />
      </g>
      <g
         id="g1127"
         transform="translate(262.7447,235.6433)">
        <path
           d="M 0,0 0.882,0.635 3.962,-3.637 6.521,-1.792 7.07,-2.553 3.63,-5.034 Z"
           style="fill:#ffffff;fill-opacity:1;fill-rule:nonzero;stroke:none"
           id="path1129" />
      </g>
      <g
         id="g1131"
         transform="translate(269.5699,240.1243)">
        <path
           d="M 0,0 0.951,0.524 3.943,-4.909 2.992,-5.433 Z"
           style="fill:#ffffff;fill-opacity:1;fill-rule:nonzero;stroke:none"
           id="path1133" />
      </g>
      <g
         id="g1135"
         transform="translate(274.5865,242.6927)">
        <path
           d="M 0,0 1.069,0.414 5.361,-2.825 5.378,-2.819 3.727,1.444 4.691,1.817 6.933,-3.969 5.862,-4.383 1.581,-1.149 1.557,-1.158 3.205,-5.412 2.24,-5.786 Z"
           style="fill:#ffffff;fill-opacity:1;fill-rule:nonzero;stroke:none"
           id="path1137" />
      </g>
      <g
         id="g1139"
         transform="translate(283.7662,245.8169)">
        <path
           d="M 0,0 1.125,0.226 4.802,-3.7 4.819,-3.697 3.92,0.786 4.935,0.99 6.155,-5.096 5.029,-5.321 1.362,-1.402 1.337,-1.407 2.234,-5.882 1.219,-6.085 Z"
           style="fill:#ffffff;fill-opacity:1;fill-rule:nonzero;stroke:none"
           id="path1141" />
      </g>
      <g
         id="g1143"
         transform="translate(299.4356,249.1997)">
        <path
           d="M 0,0 1.172,-0.036 -0.099,-1.24 -0.82,-1.218 Z m -0.733,-1.794 1.085,-0.034 -0.192,-6.2 -1.085,0.034 z"
           style="fill:#ffffff;fill-opacity:1;fill-rule:nonzero;stroke:none"
           id="path1145" />
      </g>
      <g
         id="g1147"
         transform="translate(310.0738,243.1331)">
        <path
           d="M 0,0 1.723,-0.456 C 2.387,-0.632 2.835,-0.4 3.002,0.231 3.204,0.996 2.749,1.278 2.203,1.423 L 0.496,1.874 Z M -0.327,3.01 2.538,2.251 C 3.849,1.904 4.362,1.121 4.093,0.104 3.788,-1.048 2.912,-1.13 2.701,-1.146 L 2.696,-1.163 C 3.044,-1.309 3.502,-1.718 3.251,-2.668 3.066,-3.365 2.998,-4.031 3.16,-4.335 l -1.126,0.298 c -0.091,0.303 -0.004,0.631 0.074,0.925 0.291,1.101 0.194,1.648 -0.773,1.904 l -1.546,0.41 -0.654,-2.471 -1.051,0.278 z"
           style="fill:#ffffff;fill-opacity:1;fill-rule:nonzero;stroke:none"
           id="path1149" />
      </g>
      <g
         id="g1151"
         transform="translate(318.835,243.3106)">
        <path
           d="M 0,0 4.077,-1.829 3.692,-2.685 0.607,-1.302 -0.058,-2.785 2.797,-4.065 2.434,-4.874 -0.421,-3.594 -1.165,-5.251 1.976,-6.66 1.592,-7.517 -2.541,-5.663 Z"
           style="fill:#ffffff;fill-opacity:1;fill-rule:nonzero;stroke:none"
           id="path1153" />
      </g>
      <g
         id="g1155"
         transform="translate(326.024,235.3291)">
        <path
           d="M 0,0 0.112,4.431 1.167,3.742 1.022,0.516 3.895,1.96 4.914,1.296 0.91,-0.594 -0.42,-2.631 -1.33,-2.037 Z"
           style="fill:#ffffff;fill-opacity:1;fill-rule:nonzero;stroke:none"
           id="path1157" />
      </g>
      <g
         id="g1159"
         transform="translate(334.0694,234.1512)">
        <path
           d="m 0,0 0.803,-0.732 -1.904,-2.089 3.948,0.226 0.99,-0.902 -3.502,-0.162 -0.552,-4.544 -1.003,0.914 0.493,3.562 -1.246,-0.052 -1.406,-1.542 -0.804,0.732 z"
           style="fill:#ffffff;fill-opacity:1;fill-rule:nonzero;stroke:none"
           id="path1161" />
      </g>
      <g
         id="g1163"
         transform="translate(339.4844,222.3677)">
        <path
           d="m 0,0 c -0.837,-0.678 -1.831,-1.149 -2.953,0.235 -0.826,1.019 -0.496,1.979 0.381,2.69 l 0.256,0.208 0.684,-0.844 -0.25,-0.202 C -2.428,1.644 -2.625,1.238 -2.209,0.725 -1.766,0.179 -1.332,0.319 -0.731,0.805 L 2.583,3.491 3.267,2.648 Z"
           style="fill:#ffffff;fill-opacity:1;fill-rule:nonzero;stroke:none"
           id="path1165" />
      </g>
      <g
         id="g1167"
         transform="translate(342.8614,218.2217)">
        <path
           d="M 0,0 0.958,-1.633 2.788,0.518 2.774,0.54 Z m 3.414,1.561 0.585,-0.997 -4.14,-5.198 -0.589,1.003 1.121,1.333 -1.252,2.135 -1.711,-0.329 -0.567,0.966 z"
           style="fill:#ffffff;fill-opacity:1;fill-rule:nonzero;stroke:none"
           id="path1169" />
      </g>
      <g
         id="g1171"
         transform="translate(349.2388,214.3225)">
        <path
           d="m 0,0 0.423,-1.048 -3.971,-3.283 0.007,-0.015 5.15,0.364 0.413,-1.023 -6.549,-0.359 -0.453,1.121 z"
           style="fill:#ffffff;fill-opacity:1;fill-rule:nonzero;stroke:none"
           id="path1173" />
      </g>
      <g
         id="g1175"
         transform="translate(354.274,205.4485)">
        <path
           d="m 0,0 0.301,-1.135 -1.518,0.875 -0.184,0.698 z m -1.93,0.191 0.279,-1.051 -6.001,-1.588 -0.278,1.05 z"
           style="fill:#ffffff;fill-opacity:1;fill-rule:nonzero;stroke:none"
           id="path1177" />
      </g>
      <g
         id="g1179"
         transform="translate(353.6099,200.1333)">
        <path
           d="m 0,0 0.139,-1.077 -2.802,-0.36 3.153,-2.381 0.171,-1.328 -2.772,2.141 -3.36,-3.103 -0.173,1.344 2.681,2.395 -0.984,0.767 -2.069,-0.266 -0.138,1.077 z"
           style="fill:#ffffff;fill-opacity:1;fill-rule:nonzero;stroke:none"
           id="path1181" />
      </g>
      <g
         id="g1183"
         transform="translate(245.0953,178.7537)">
        <path
           d="m 0,0 0.44,-1.727 c 0.17,-0.666 0.591,-0.944 1.223,-0.783 0.767,0.196 0.792,0.731 0.652,1.279 L 1.878,0.479 Z M 2.469,1.752 3.203,-1.121 C 3.538,-2.436 3.103,-3.264 2.083,-3.525 0.929,-3.819 0.43,-3.094 0.313,-2.917 L 0.296,-2.921 c 0.042,-0.376 -0.092,-0.975 -1.045,-1.218 -0.698,-0.179 -1.313,-0.443 -1.5,-0.733 l -0.288,1.129 c 0.221,0.227 0.55,0.311 0.844,0.386 1.104,0.282 1.535,0.634 1.288,1.603 l -0.396,1.55 -2.477,-0.632 -0.268,1.053 z"
           style="fill:#ffffff;fill-opacity:1;fill-rule:nonzero;stroke:none"
           id="path1185" />
      </g>
      <g
         id="g1187"
         transform="translate(249.9102,172.5367)">
        <path
           d="m 0,0 1.773,-4.099 -0.861,-0.372 -1.342,3.102 -1.491,-0.645 1.242,-2.871 -0.814,-0.352 -1.241,2.871 -1.667,-0.721 1.366,-3.158 -0.861,-0.373 -1.798,4.155 z"
           style="fill:#ffffff;fill-opacity:1;fill-rule:nonzero;stroke:none"
           id="path1189" />
      </g>
      <g
         id="g1191"
         transform="translate(250.8804,162.21)">
        <path
           d="M 0,0 1.949,3.98 2.621,2.915 1.144,0.043 4.358,0.158 5.006,-0.871 0.579,-0.919 -1.479,-2.216 -2.058,-1.297 Z"
           style="fill:#ffffff;fill-opacity:1;fill-rule:nonzero;stroke:none"
           id="path1193" />
      </g>
      <g
         id="g1195"
         transform="translate(257.5943,159.1148)">
        <path
           d="m 0,0 0.715,-0.818 -2.127,-1.858 3.945,-0.224 0.881,-1.007 -3.495,0.235 -1.064,-4.449 -0.892,1.021 0.894,3.482 -1.244,0.09 -1.571,-1.372 -0.715,0.818 z"
           style="fill:#ffffff;fill-opacity:1;fill-rule:nonzero;stroke:none"
           id="path1197" />
      </g>
      <g
         id="g1199"
         transform="translate(263.0259,147.7903)">
        <path
           d="m 0,0 c -0.698,-0.821 -1.589,-1.466 -2.946,-0.312 -1,0.851 -0.853,1.855 -0.121,2.716 L -2.853,2.656 -2.025,1.951 -2.234,1.707 C -2.69,1.17 -2.809,0.735 -2.305,0.307 -1.77,-0.149 -1.368,0.069 -0.866,0.658 l 2.764,3.25 0.828,-0.704 z"
           style="fill:#ffffff;fill-opacity:1;fill-rule:nonzero;stroke:none"
           id="path1201" />
      </g>
      <g
         id="g1203"
         transform="translate(267.6778,145.0181)">
        <path
           d="M 0,0 1.605,-1.007 2.235,1.747 2.213,1.761 Z M 2.311,2.962 3.29,2.348 2.015,-4.179 1.028,-3.56 l 0.381,1.701 -2.099,1.317 -1.366,-1.082 -0.95,0.596 z"
           style="fill:#ffffff;fill-opacity:1;fill-rule:nonzero;stroke:none"
           id="path1205" />
      </g>
      <g
         id="g1207"
         transform="translate(274.4117,145.3645)">
        <path
           d="M 0,0 1.032,-0.458 0.463,-5.577 0.479,-5.583 3.923,-1.741 4.933,-2.189 0.478,-7 -0.626,-6.51 Z"
           style="fill:#ffffff;fill-opacity:1;fill-rule:nonzero;stroke:none"
           id="path1209" />
      </g>
      <g
         id="g1211"
         transform="translate(283.2764,143.8384)">
        <path
           d="m 0,0 1.123,-0.341 -1.542,-0.831 -0.69,0.21 z m -1.176,-1.541 1.039,-0.316 -1.803,-5.939 -1.039,0.315 z"
           style="fill:#ffffff;fill-opacity:1;fill-rule:nonzero;stroke:none"
           id="path1213" />
      </g>
      <g
         id="g1215"
         transform="translate(286.6363,141.0357)">
        <path
           d="M 0,0 1.071,-0.181 0.599,-2.965 3.795,-0.643 5.114,-0.866 2.259,-2.894 4.25,-7.011 2.913,-6.785 1.403,-3.524 0.383,-4.241 0.035,-6.297 -1.036,-6.116 Z"
           style="fill:#ffffff;fill-opacity:1;fill-rule:nonzero;stroke:none"
           id="path1217" />
      </g>
      <g
         id="g1219"
         transform="translate(299.3824,139.9148)">
        <path
           d="m 0,0 1.083,0.094 0.313,-3.603 c 0.072,-0.832 0.208,-1.789 1.61,-1.667 1.404,0.122 1.372,1.088 1.3,1.919 L 3.993,0.347 5.076,0.441 5.419,-3.518 C 5.558,-5.103 4.613,-5.979 3.088,-6.112 1.563,-6.244 0.481,-5.544 0.344,-3.958 Z"
           style="fill:#ffffff;fill-opacity:1;fill-rule:nonzero;stroke:none"
           id="path1221" />
      </g>
      <g
         id="g1223"
         transform="translate(307.8067,140.9256)">
        <path
           d="M 0,0 1.111,0.286 4.996,-3.432 5.013,-3.428 3.871,0.999 4.873,1.257 6.422,-4.751 5.312,-5.038 1.437,-1.325 1.412,-1.332 2.551,-5.75 1.55,-6.008 Z"
           style="fill:#ffffff;fill-opacity:1;fill-rule:nonzero;stroke:none"
           id="path1225" />
      </g>
      <g
         id="g1227"
         transform="translate(315.9913,143.4146)">
        <path
           d="M 0,0 1.008,0.407 3.333,-5.348 2.325,-5.755 Z"
           style="fill:#ffffff;fill-opacity:1;fill-rule:nonzero;stroke:none"
           id="path1229" />
      </g>
      <g
         id="g1231"
         transform="translate(319.6959,144.9597)">
        <path
           d="M 0,0 0.989,0.546 4.726,-3.001 4.741,-2.992 3.759,2.076 4.726,2.61 5.869,-3.848 4.812,-4.433 Z"
           style="fill:#ffffff;fill-opacity:1;fill-rule:nonzero;stroke:none"
           id="path1233" />
      </g>
      <g
         id="g1235"
         transform="translate(326.7667,149.1663)">
        <path
           d="M 0,0 3.546,2.718 4.117,1.973 1.434,-0.084 2.422,-1.374 4.906,0.529 5.446,-0.175 2.962,-2.078 4.066,-3.52 6.799,-1.426 7.37,-2.171 3.775,-4.926 Z"
           style="fill:#ffffff;fill-opacity:1;fill-rule:nonzero;stroke:none"
           id="path1237" />
      </g>
      <g
         id="g1239"
         transform="translate(335.4986,152.8767)">
        <path
           d="M 0,0 1.227,1.291 C 1.7,1.789 1.712,2.293 1.24,2.742 0.667,3.287 0.2,3.023 -0.189,2.614 L -1.404,1.335 Z m -2.794,1.158 2.04,2.148 C 0.18,4.288 1.113,4.361 1.875,3.637 2.738,2.817 2.39,2.009 2.302,1.816 L 2.314,1.804 C 2.61,2.039 3.188,2.244 3.9,1.568 4.423,1.071 4.973,0.692 5.318,0.688 L 4.516,-0.156 C 4.206,-0.09 3.96,0.144 3.741,0.353 2.915,1.137 2.388,1.314 1.7,0.59 L 0.599,-0.569 2.45,-2.329 1.702,-3.116 Z"
           style="fill:#ffffff;fill-opacity:1;fill-rule:nonzero;stroke:none"
           id="path1241" />
      </g>
      <g
         id="g1243"
         transform="translate(342.022,158.4995)">
        <path
           d="M 0,0 C 0.787,-0.542 1.494,-0.173 1.986,0.542 2.527,1.33 2.343,1.889 1.956,2.155 1.562,2.426 1.257,2.319 1.036,2.166 0.653,1.901 0.241,1.5 -0.435,0.931 -1.272,0.22 -1.978,0.327 -2.508,0.691 -3.532,1.395 -3.361,2.67 -2.727,3.593 -1.993,4.66 -0.812,5.166 0.254,4.432 L -0.361,3.537 C -1.049,3.947 -1.598,3.671 -2.021,3.055 -2.306,2.64 -2.516,2.014 -2,1.66 -1.643,1.414 -1.274,1.519 -0.923,1.815 -0.848,1.879 0.224,2.809 0.484,3.019 1.147,3.554 1.942,3.482 2.471,3.118 3.617,2.331 3.376,0.999 2.676,-0.017 1.875,-1.184 0.667,-1.745 -0.616,-0.895 Z"
           style="fill:#ffffff;fill-opacity:1;fill-rule:nonzero;stroke:none"
           id="path1245" />
      </g>
      <g
         id="g1247"
         transform="translate(342.4141,166.9451)">
        <path
           d="M 0,0 0.501,0.964 6.011,-1.897 5.509,-2.862 Z"
           style="fill:#ffffff;fill-opacity:1;fill-rule:nonzero;stroke:none"
           id="path1249" />
      </g>
      <g
         id="g1251"
         transform="translate(344.2642,170.6411)">
        <path
           d="M 0,0 1.764,4.703 2.643,4.373 1.95,2.526 6.88,0.677 6.499,-0.34 1.568,1.509 0.878,-0.329 Z"
           style="fill:#ffffff;fill-opacity:1;fill-rule:nonzero;stroke:none"
           id="path1253" />
      </g>
      <g
         id="g1255"
         transform="translate(350.8419,178.972)">
        <path
           d="m 0,0 -4.17,-1.5 0.26,1.233 3.06,1.033 -2.387,2.155 0.251,1.19 L 0.224,1.062 2.605,0.56 2.381,-0.503 Z"
           style="fill:#ffffff;fill-opacity:1;fill-rule:nonzero;stroke:none"
           id="path1257" />
      </g>
    </g>
  </g>
</svg>
