<?xml version="1.0" encoding="UTF-8" standalone="no"?>
<svg
   xmlns:dc="http://purl.org/dc/elements/1.1/"
   xmlns:cc="http://creativecommons.org/ns#"
   xmlns:rdf="http://www.w3.org/1999/02/22-rdf-syntax-ns#"
   xmlns:svg="http://www.w3.org/2000/svg"
   xmlns="http://www.w3.org/2000/svg"
   version="1.1"
   id="svg7998"
   xml:space="preserve"
   width="715.48438"
   height="245.5304"
   viewBox="0 0 715.48438 245.5304"><metadata
     id="metadata8004"><rdf:RDF><cc:Work
         rdf:about=""><dc:format>image/svg+xml</dc:format><dc:type
           rdf:resource="http://purl.org/dc/dcmitype/StillImage" /><dc:title></dc:title></cc:Work></rdf:RDF></metadata><defs
     id="defs8002"><clipPath
       clipPathUnits="userSpaceOnUse"
       id="clipPath8014"><path
         d="M 0,266 H 644 V 0 H 0 Z"
         id="path8012" /></clipPath><clipPath
       clipPathUnits="userSpaceOnUse"
       id="clipPath8096"><path
         d="M 0,266 H 644 V 0 H 0 Z"
         id="path8094" /></clipPath></defs><g
     id="g8006"
     transform="matrix(1.3333333,0,0,-1.3333333,-72.088531,294.53066)"><g
       id="g8008"><g
         id="g8010"
         clip-path="url(#clipPath8014)"><g
           id="g8016"
           transform="translate(187.0605,68.627)"><path
             d="m 0,0 c -0.536,1.802 -0.806,3.898 -0.806,6.285 0,2.387 0.27,4.483 0.806,6.285 0.537,1.805 1.23,3.247 2.077,4.317 0.849,1.072 1.891,1.944 3.127,2.623 1.236,0.674 2.442,1.127 3.623,1.352 1.18,0.225 2.437,0.341 3.772,0.341 3.026,0 5.996,-0.573 8.908,-1.728 v -3.77 c -2.742,1.22 -5.554,1.832 -8.439,1.832 -3.439,0 -5.932,-0.883 -7.48,-2.653 -1.549,-1.768 -2.323,-4.635 -2.323,-8.599 0,-3.92 0.774,-6.777 2.323,-8.566 1.548,-1.79 4.041,-2.687 7.48,-2.687 2.885,0 5.697,0.614 8.439,1.833 v -3.75 c -2.912,-1.166 -5.882,-1.747 -8.908,-1.747 -1.335,0 -2.592,0.116 -3.772,0.341 C 7.646,-8.066 6.44,-7.613 5.204,-6.939 3.968,-6.26 2.926,-5.389 2.077,-4.315 1.23,-3.246 0.537,-1.806 0,0"
             style="fill:#ffffff;fill-opacity:1;fill-rule:nonzero;stroke:none"
             id="path8018" /></g><g
           id="g8020"
           transform="translate(214.0015,60.3359)"><path
             d="m 0,0 v 19.946 c 3.637,1.45 7.174,2.175 10.613,2.175 V 18.455 C 8.447,18.428 6.236,18.121 3.985,17.537 V 0 Z"
             style="fill:#ffffff;fill-opacity:1;fill-rule:nonzero;stroke:none"
             id="path8022" /></g><g
           id="g8024"
           transform="translate(231.647,72.5488)"><path
             d="M 0,0 H 11.188 C 11.132,0.721 11.006,1.414 10.817,2.076 10.623,2.734 10.332,3.41 9.941,4.092 9.551,4.773 8.986,5.316 8.247,5.719 7.509,6.126 6.628,6.327 5.605,6.327 3.772,6.327 2.425,5.854 1.568,4.91 0.707,3.968 0.184,2.328 0,0 m -4.007,-1.58 c 0,7.655 3.205,11.488 9.612,11.488 h 0.042 c 2.912,0 5.239,-0.95 6.978,-2.856 1.742,-1.899 2.612,-4.448 2.612,-7.641 0,-1.042 -0.043,-2.038 -0.128,-2.991 H 0.064 c 0.482,-3.738 2.528,-5.607 6.138,-5.607 2.94,0 5.447,0.545 7.522,1.638 v -3.629 c -2.245,-0.947 -4.781,-1.419 -7.608,-1.419 H 5.988 c -1.279,0 -2.458,0.159 -3.537,0.48 -1.079,0.323 -2.131,0.849 -3.152,1.594 -1.024,0.735 -1.829,1.875 -2.42,3.402 -0.591,1.529 -0.886,3.378 -0.886,5.541"
             style="fill:#ffffff;fill-opacity:1;fill-rule:nonzero;stroke:none"
             id="path8026" /></g><g
           id="g8028"
           transform="translate(254.876,67.2637)"><path
             d="m 0,0 c 0,-2.461 1.744,-3.688 5.231,-3.688 h 0.064 c 3.289,0 4.934,1.176 4.934,3.536 V 3.367 C 9.179,3.533 7.917,3.627 6.443,3.643 5.862,3.643 5.252,3.588 4.614,3.482 3.977,3.379 3.289,3.212 2.551,2.983 1.816,2.759 1.205,2.387 0.722,1.86 0.24,1.34 0,0.721 0,0 m -3.985,-0.046 c 0,2.154 0.91,3.835 2.73,5.044 1.821,1.213 4.33,1.82 7.527,1.82 1.363,0 2.68,-0.084 3.957,-0.254 -0.085,1.829 -0.585,3.146 -1.5,3.94 -0.914,0.795 -2.414,1.193 -4.496,1.193 -1.891,0 -3.902,-0.36 -6.033,-1.088 v 3.41 c 2.059,0.783 4.255,1.174 6.585,1.174 3.036,0 5.381,-0.787 7.035,-2.357 1.652,-1.568 2.48,-3.823 2.48,-6.765 v -6.288 c 0,-0.465 -0.047,-0.93 -0.14,-1.396 C 14.067,-2.072 13.846,-2.666 13.497,-3.391 13.149,-4.115 12.674,-4.746 12.076,-5.285 11.477,-5.828 10.578,-6.293 9.381,-6.684 8.183,-7.076 6.8,-7.269 5.231,-7.269 c -1.606,0 -3.015,0.202 -4.224,0.608 -1.208,0.407 -2.119,0.88 -2.732,1.423 -0.609,0.543 -1.098,1.18 -1.46,1.922 -0.362,0.744 -0.587,1.355 -0.672,1.839 -0.086,0.486 -0.128,0.961 -0.128,1.431"
             style="fill:#ffffff;fill-opacity:1;fill-rule:nonzero;stroke:none"
             id="path8030" /></g><g
           id="g8032"
           transform="translate(272.2861,78.7061)"><path
             d="M 0,0 V 3.409 H 3.793 V 9.868 H 7.779 V 3.409 h 5.797 V 0 H 7.779 v -12.59 c 0,-1.696 1.074,-2.54 3.218,-2.54 h 0.043 c 0.993,0 1.84,0.209 2.536,0.634 v -3.611 c -0.994,-0.403 -1.99,-0.604 -2.983,-0.604 h -0.107 c -0.526,0 -1.088,0.061 -1.684,0.192 -0.596,0.125 -1.31,0.377 -2.143,0.752 -0.829,0.377 -1.515,1.032 -2.055,1.957 -0.54,0.928 -0.811,2.082 -0.811,3.457 L 3.793,0 Z"
             style="fill:#ffffff;fill-opacity:1;fill-rule:nonzero;stroke:none"
             id="path8034" /></g><path
           d="m 291.254,82.115 h 3.985 V 60.336 h -3.985 z m -0.129,7.586 h 4.241 v -4.219 h -4.241 z"
           style="fill:#ffffff;fill-opacity:1;fill-rule:nonzero;stroke:none"
           id="path8036" /><g
           id="g8038"
           transform="translate(300.2676,82.1152)"><path
             d="M 0,0 H 4.263 L 10.379,-16.982 16.538,0 H 20.8 L 12.425,-21.779 H 8.333 Z"
             style="fill:#ffffff;fill-opacity:1;fill-rule:nonzero;stroke:none"
             id="path8040" /></g><g
           id="g8042"
           transform="translate(328.1211,72.5488)"><path
             d="M 0,0 H 11.188 C 11.132,0.721 11.006,1.414 10.816,2.076 10.623,2.734 10.332,3.41 9.941,4.092 9.551,4.773 8.986,5.316 8.247,5.719 7.51,6.126 6.627,6.327 5.605,6.327 3.772,6.327 2.426,5.854 1.567,4.91 0.708,3.968 0.184,2.328 0,0 m -4.006,-1.58 c 0,7.655 3.204,11.488 9.611,11.488 h 0.043 c 2.912,0 5.238,-0.95 6.978,-2.856 1.741,-1.899 2.611,-4.448 2.611,-7.641 0,-1.042 -0.043,-2.038 -0.128,-2.991 H 0.064 c 0.483,-3.738 2.528,-5.607 6.137,-5.607 2.942,0 5.448,0.545 7.524,1.638 v -3.629 c -2.246,-0.947 -4.782,-1.419 -7.609,-1.419 H 5.988 c -1.278,0 -2.458,0.159 -3.537,0.48 -1.079,0.323 -2.131,0.849 -3.152,1.594 -1.023,0.735 -1.829,1.875 -2.42,3.402 -0.591,1.529 -0.885,3.378 -0.885,5.541"
             style="fill:#ffffff;fill-opacity:1;fill-rule:nonzero;stroke:none"
             id="path8044" /></g><g
           id="g8046"
           transform="translate(349.8584,55.2637)"><path
             d="M 0,0 V 35.396 H 7.886 V 32.222 H 3.347 V 3.173 H 7.886 V 0 Z"
             style="fill:#59c9eb;fill-opacity:1;fill-rule:nonzero;stroke:none"
             id="path8048" /></g><path
           d="m 364.648,82.115 h 3.985 V 60.336 h -3.985 z m -0.127,7.586 h 4.24 v -4.219 h -4.24 z"
           style="fill:#ffffff;fill-opacity:1;fill-rule:nonzero;stroke:none"
           id="path8050" /><g
           id="g8052"
           transform="translate(375.751,60.3359)"><path
             d="m 0,0 v 19.932 c 3.021,1.486 6.116,2.23 9.282,2.23 2.759,0 4.919,-0.716 6.485,-2.154 1.564,-1.432 2.347,-3.421 2.347,-5.967 V 0 h -4.07 v 14.352 c 0,1.286 -0.327,2.294 -0.982,3.038 -0.655,0.735 -1.972,1.107 -3.951,1.107 -1.78,0 -3.489,-0.263 -5.126,-0.79 L 3.985,0 Z"
             style="fill:#ffffff;fill-opacity:1;fill-rule:nonzero;stroke:none"
             id="path8054" /></g><g
           id="g8056"
           transform="translate(399.875,58.4365)"><path
             d="M 0,0 H 4.496 V 29.049 H 0 v 3.174 H 7.864 V -3.173 H 0 Z"
             style="fill:#59c9eb;fill-opacity:1;fill-rule:nonzero;stroke:none"
             id="path8058" /></g><g
           id="g8060"
           transform="translate(415.2832,81.585)"><path
             d="m 0,0 c 0,2.278 0.826,4.215 2.485,5.808 1.657,1.596 4.22,2.394 7.691,2.394 2.611,0 5.115,-0.592 7.503,-1.771 V 2.472 C 15.547,3.766 13.206,4.409 10.665,4.409 6.27,4.409 4.07,2.937 4.07,0 c 0,-0.79 0.385,-1.48 1.159,-2.069 0.772,-0.589 1.726,-1.055 2.861,-1.411 1.133,-0.349 2.377,-0.806 3.729,-1.364 1.349,-0.557 2.596,-1.155 3.736,-1.786 1.134,-0.631 2.088,-1.555 2.855,-2.774 0.772,-1.221 1.152,-2.64 1.152,-4.262 0,-2.483 -0.93,-4.429 -2.791,-5.825 -1.868,-1.403 -4.441,-2.099 -7.726,-2.099 -2.914,0 -5.8,0.696 -8.66,2.085 v 4.185 c 2.703,-1.651 5.469,-2.478 8.302,-2.478 4.519,0 6.791,1.376 6.805,4.132 0,1.178 -0.384,2.181 -1.146,3.01 -0.768,0.837 -1.721,1.437 -2.852,1.809 L 7.751,-7.575 C 6.389,-7.103 5.142,-6.618 4.008,-6.122 2.874,-5.626 1.923,-4.859 1.154,-3.813 0.385,-2.763 0,-1.496 0,0"
             style="fill:#ffffff;fill-opacity:1;fill-rule:nonzero;stroke:none"
             id="path8062" /></g><g
           id="g8064"
           transform="translate(443.4141,72.5488)"><path
             d="M 0,0 H 11.188 C 11.129,0.721 11.005,1.414 10.815,2.076 10.621,2.734 10.33,3.41 9.939,4.092 9.548,4.773 8.982,5.316 8.246,5.719 7.51,6.126 6.627,6.327 5.604,6.327 3.771,6.327 2.426,5.854 1.566,4.91 0.706,3.968 0.184,2.328 0,0 m -4.005,-1.58 c 0,7.655 3.199,11.488 9.609,11.488 h 0.042 c 2.911,0 5.24,-0.95 6.979,-2.856 1.744,-1.899 2.611,-4.448 2.611,-7.641 0,-1.042 -0.043,-2.038 -0.128,-2.991 H 0.062 C 0.543,-7.318 2.59,-9.187 6.2,-9.187 c 2.942,0 5.448,0.545 7.526,1.638 v -3.629 c -2.248,-0.947 -4.783,-1.419 -7.611,-1.419 H 5.987 c -1.279,0 -2.461,0.159 -3.538,0.48 -1.077,0.323 -2.131,0.849 -3.154,1.594 -1.022,0.735 -1.828,1.875 -2.417,3.402 -0.59,1.529 -0.883,3.378 -0.883,5.541"
             style="fill:#ffffff;fill-opacity:1;fill-rule:nonzero;stroke:none"
             id="path8066" /></g><g
           id="g8068"
           transform="translate(465.5664,62.877)"><path
             d="m 0,0 c -1.729,1.918 -2.592,4.7 -2.592,8.346 0,3.65 0.863,6.432 2.592,8.354 1.725,1.919 4.243,2.88 7.552,2.88 2.217,0 4.355,-0.408 6.417,-1.213 v -3.798 c -1.977,0.953 -3.972,1.43 -5.991,1.43 H 7.894 c -2,0 -3.574,-0.515 -4.708,-1.55 C 2.05,13.415 1.48,11.385 1.48,8.346 1.48,6.738 1.647,5.401 1.98,4.341 2.313,3.277 2.813,2.491 3.472,1.981 4.135,1.465 4.801,1.123 5.475,0.953 6.149,0.782 6.955,0.699 7.894,0.699 c 2.091,0 4.114,0.463 6.075,1.386 V -1.681 C 11.907,-2.483 9.769,-2.882 7.552,-2.882 4.243,-2.882 1.725,-1.921 0,0"
             style="fill:#ffffff;fill-opacity:1;fill-rule:nonzero;stroke:none"
             id="path8070" /></g><g
           id="g8072"
           transform="translate(484.3936,69.499)"><path
             d="M 0,0 V 12.616 H 3.983 V -0.313 c 0,-1.977 0.427,-3.425 1.267,-4.352 0.842,-0.927 2.167,-1.387 3.964,-1.387 1.806,0 3.119,0.46 3.948,1.375 0.829,0.918 1.243,2.372 1.243,4.364 v 12.929 h 3.984 V 0 c 0,-3.025 -0.796,-5.374 -2.407,-7.043 -1.603,-1.671 -3.859,-2.504 -6.763,-2.504 -2.911,0 -5.174,0.833 -6.793,2.504 C 0.81,-5.374 0,-3.025 0,0"
             style="fill:#ffffff;fill-opacity:1;fill-rule:nonzero;stroke:none"
             id="path8074" /></g><g
           id="g8076"
           transform="translate(508.9199,60.3359)"><path
             d="m 0,0 v 19.946 c 3.64,1.45 7.176,2.175 10.617,2.175 V 18.455 C 8.448,18.428 6.239,18.121 3.987,17.537 V 0 Z"
             style="fill:#ffffff;fill-opacity:1;fill-rule:nonzero;stroke:none"
             id="path8078" /></g><path
           d="m 524.095,82.115 h 3.985 V 60.336 h -3.985 z m -0.126,7.586 h 4.239 v -4.219 h -4.239 z"
           style="fill:#ffffff;fill-opacity:1;fill-rule:nonzero;stroke:none"
           id="path8080" /><g
           id="g8082"
           transform="translate(532.9824,78.7061)"><path
             d="M 0,0 V 3.409 H 3.794 V 9.868 H 7.781 V 3.409 h 5.796 V 0 H 7.781 v -12.59 c 0,-1.696 1.07,-2.54 3.215,-2.54 h 0.043 c 0.996,0 1.842,0.209 2.538,0.634 v -3.611 c -0.995,-0.403 -1.991,-0.604 -2.983,-0.604 h -0.11 c -0.526,0 -1.083,0.061 -1.68,0.192 -0.598,0.125 -1.311,0.377 -2.147,0.752 -0.829,0.377 -1.511,1.032 -2.054,1.957 -0.542,0.928 -0.809,2.082 -0.809,3.457 L 3.794,0 Z"
             style="fill:#ffffff;fill-opacity:1;fill-rule:nonzero;stroke:none"
             id="path8084" /></g><g
           id="g8086"
           transform="translate(550.1162,82.1152)"><path
             d="M 0,0 H 4.286 L 10.146,-16.309 15.898,0 h 4.283 L 11.229,-24.104 C 9.684,-28.282 7.433,-30.365 4.476,-30.365 H 4.457 c -0.97,0 -1.985,0.111 -3.051,0.34 v 3.6 c 0.865,-0.229 1.687,-0.349 2.453,-0.361 1.803,0 3.258,1.675 4.368,5.021 z"
             style="fill:#ffffff;fill-opacity:1;fill-rule:nonzero;stroke:none"
             id="path8088" /></g></g></g><g
       id="g8090"><g
         id="g8092"
         clip-path="url(#clipPath8096)"><g
           id="g8098"
           transform="translate(241.5371,126.8379)"><path
             d="m 0,0 c 0,-13.55 -12.935,-22.461 -28.074,-22.461 -11.594,0 -20.259,2.93 -26.853,6.953 V -0.61 c 5.738,-4.273 13.428,-7.813 23.443,-7.813 8.418,0 16.84,1.831 16.84,9.4 0,18.062 -41.379,7.812 -41.379,36.252 0,16.603 13.794,23.684 29.05,23.684 8.179,0 15.506,-2.322 21.851,-5.618 v -14.28 c -5.003,3.296 -11.719,6.224 -20.142,6.224 -7.693,0 -16.113,-2.32 -16.113,-9.641 C -41.377,22.706 0,33.202 0,0"
             style="fill:#ffffff;fill-opacity:1;fill-rule:nonzero;stroke:none"
             id="path8100" /></g><g
           id="g8102"
           transform="translate(292.3936,140.2656)"><path
             d="M 0,0 V -34.912 H -14.648 V 0 l -31.978,46.509 h 17.7 L -7.322,13.427 14.163,46.509 h 17.702 z"
             style="fill:#ffffff;fill-opacity:1;fill-rule:nonzero;stroke:none"
             id="path8104" /></g><g
           id="g8106"
           transform="translate(405.5781,186.7744)"><path
             d="m 0,0 v -81.421 h -16.357 l -42.114,60.79 v -60.79 H -73.117 V 0 h 16.601 L -14.65,-60.303 V 0 Z"
             style="fill:#ffffff;fill-opacity:1;fill-rule:nonzero;stroke:none"
             id="path8108" /></g><g
           id="g8110"
           transform="translate(469.8398,146.002)"><path
             d="m 0,0 c 0,19.533 -6.832,27.463 -23.802,27.463 h -13.427 v -54.806 h 13.427 C -6.832,-27.343 0,-19.408 0,0 m 14.65,0 c 0,-26.61 -13.31,-40.648 -38.452,-40.648 h -28.076 v 81.42 h 28.076 C 1.34,40.772 14.65,26.734 14.65,0"
             style="fill:#ffffff;fill-opacity:1;fill-rule:nonzero;stroke:none"
             id="path8112" /></g><path
           d="M 494.552,186.774 H 509.2 v -81.421 h -14.648 z"
           style="fill:#ffffff;fill-opacity:1;fill-rule:nonzero;stroke:none"
           id="path8114" /><g
           id="g8116"
           transform="translate(575.6797,126.8379)"><path
             d="m 0,0 c 0,-13.55 -12.938,-22.461 -28.074,-22.461 -11.594,0 -20.262,2.93 -26.856,6.953 V -0.61 c 5.735,-4.273 13.428,-7.813 23.443,-7.813 8.418,0 16.845,1.831 16.845,9.4 0,18.062 -41.381,7.812 -41.381,36.252 0,16.603 13.791,23.684 29.05,23.684 8.176,0 15.505,-2.322 21.85,-5.618 v -14.28 c -5.007,3.296 -11.719,6.224 -20.144,6.224 -7.692,0 -16.113,-2.32 -16.113,-9.641 C -41.38,22.706 0,33.202 0,0"
             style="fill:#ffffff;fill-opacity:1;fill-rule:nonzero;stroke:none"
             id="path8118" /></g><g
           id="g8120"
           transform="translate(104.6694,136.501)"><path
             d="M 0,0 -12.039,19.125 H 23.943 L 35.984,0 Z m 47.532,5.645 c 0,0 -0.02,-0.005 -0.03,-0.005 L 30.989,31.875 H -12.039 L 0,51.002 h 37.361 c 2.129,-3.38 5.869,-5.645 10.146,-5.645 4.439,0 8.311,2.421 10.393,6.005 1.033,1.773 1.634,3.824 1.634,6.016 0,2.2 -0.608,4.257 -1.646,6.035 -2.085,3.569 -5.952,5.984 -10.381,5.984 -4.277,0 -8.017,-2.266 -10.146,-5.645 H -7.043 l -0.215,-0.339 -7.583,-12.051 -8.716,-13.843 -0.025,0.001 c -6.63,0 -12.021,-5.392 -12.021,-12.02 0,-6.627 5.391,-12.02 12.021,-12.02 l 0.025,0.002 16.514,-26.236 H 35.984 L 23.943,-31.875 h -37.359 c -2.128,3.379 -5.869,5.645 -10.148,5.645 -4.468,0 -8.367,-2.461 -10.437,-6.087 -1.001,-1.755 -1.582,-3.777 -1.582,-5.932 0,-2.234 0.622,-4.324 1.689,-6.116 2.097,-3.531 5.937,-5.908 10.33,-5.908 4.279,0 8.02,2.265 10.148,5.644 h 44.405 l 0.166,0.264 7.58,12.048 8.767,13.923 h 0.02 c 6.636,0 12.029,5.391 12.029,12.02 0,6.623 -5.393,12.019 -12.019,12.019"
             style="fill:#59c9eb;fill-opacity:1;fill-rule:nonzero;stroke:none"
             id="path8122" /></g></g></g></g></svg>
